<svg width="18" height="14" viewBox="0 0 18 14" fill="none" xmlns="http://www.w3.org/2000/svg">
<path d="M16.7577 6.05017C17.0808 6.63816 17.0808 7.35537 16.7577 7.94336C15.8273 9.64916 13.4042 13.0543 8.99758 13.0543C4.59091 13.0543 2.21312 9.70085 1.25684 7.98859C0.914387 7.36829 0.914387 6.62523 1.25684 6.0114C2.20666 4.29267 4.62322 0.945679 8.99758 0.945679C13.3719 0.945679 15.8273 4.35729 16.7577 6.05663V6.05017Z" stroke="#262624"/>
<path d="M8.99759 9.31965C10.3929 9.31965 11.524 8.18854 11.524 6.79325C11.524 5.39795 10.3929 4.26685 8.99759 4.26685C7.6023 4.26685 6.47119 5.39795 6.47119 6.79325C6.47119 8.18854 7.6023 9.31965 8.99759 9.31965Z" stroke="#262624"/>
</svg>
