<svg width="132" height="25" viewBox="0 0 132 25" fill="none" xmlns="http://www.w3.org/2000/svg">
<g clip-path="url(#clip0_187_211)">
<path d="M4.99143 10.6449C5.1222 10.4882 5.31348 10.4 5.51773 10.4C5.72091 10.4007 5.91114 10.4907 6.04044 10.6471L9.62227 14.9757L15.8792 6.31093V6.12541C15.8792 5.1996 15.122 4.44238 14.1962 4.44238H1.68302C0.757216 4.44238 0 5.1996 0 6.12541V16.5986L4.99143 10.6449Z" fill="#C82F48"/>
<path d="M10.2098 16.43C10.087 16.6007 9.88739 16.7062 9.67666 16.7124C9.46774 16.7181 9.26493 16.6263 9.13199 16.4653L5.51198 12.0906L0.000732422 18.6641C0.0144214 19.5781 0.765874 20.3216 1.68303 20.3216H14.1962C15.122 20.3216 15.8792 19.5644 15.8792 18.6386V8.57861L10.2098 16.43Z" fill="#C82F48"/>
<path d="M21.511 8.13913C21.511 7.88118 21.5197 7.60632 21.537 7.31381C23.1361 6.45428 24.8555 6.02417 26.6956 6.02417C28.5356 6.02417 29.8552 6.3725 30.6549 7.06888C31.4547 7.76519 31.8541 8.92192 31.8541 10.538V16.0319C32.4558 16.1522 32.9287 16.2988 33.2727 16.4703V18.7142C32.3959 19.127 31.1405 19.3331 29.5068 19.3331C29.3346 18.886 29.1884 18.3446 29.0685 17.7081C28.3288 18.7913 26.9877 19.3331 25.0446 19.3331C23.8922 19.3331 22.9077 18.9977 22.0914 18.3273C21.2744 17.6566 20.8662 16.7455 20.8662 15.5931C20.8662 14.4408 21.2488 13.534 22.0139 12.8719C22.7787 12.2101 23.9181 11.8787 25.4315 11.8787H28.2428V10.6406C28.2428 9.29944 27.5292 8.62865 26.1019 8.62865C25.5688 8.62865 25.1303 8.68022 24.7863 8.78359C24.7517 9.50583 24.6483 10.0649 24.4769 10.4601H21.9491C21.6566 9.85854 21.511 9.08507 21.511 8.13913ZM26.1538 16.7023C27.0306 16.7023 27.7273 16.4443 28.2431 15.9285V13.8135H26.4376C25.1995 13.8135 24.5806 14.2865 24.5806 15.2322C24.5806 15.6623 24.7135 16.015 24.9805 16.2898C25.2467 16.565 25.6379 16.7023 26.1538 16.7023Z" fill="#262624"/>
<path d="M33.5328 6.23059C34.4784 6.02417 35.3293 5.92114 36.0862 5.92114C36.843 5.92114 37.4702 5.93843 37.9691 5.97266V7.23636C39.1208 6.42835 40.3506 6.02417 41.6575 6.02417C43.377 6.02417 44.6237 6.51412 45.3975 7.49432C46.1714 8.47452 46.5582 10.1082 46.5582 12.3949C46.5582 13.6161 46.3778 14.6904 46.0164 15.6191C45.6555 16.5478 45.1652 17.2697 44.5463 17.7855C43.3597 18.8172 41.9497 19.3331 40.3164 19.3331C39.6111 19.3331 38.9407 19.2643 38.3045 19.1267V21.345C39.3189 21.6198 39.9721 21.9383 40.2649 22.2993L40.007 24.2852H33.5328L33.2749 22.2993C33.4982 21.9899 33.9712 21.6973 34.6935 21.4225V9.0934C34.0915 8.88695 33.6186 8.59479 33.2749 8.21656L33.5328 6.23059ZM40.0585 16.7026C40.918 16.7026 41.5971 16.3201 42.096 15.5549C42.5946 14.7902 42.8438 13.7325 42.8438 12.3823C42.8438 11.0322 42.7059 10.1085 42.431 9.6096C42.1558 9.11105 41.6572 8.86172 40.9349 8.86172C39.8344 8.86172 38.9572 9.11968 38.3042 9.63553V16.4966C38.8369 16.6346 39.4219 16.7026 40.0585 16.7026Z" fill="#262624"/>
<path d="M47.3346 6.23059C48.2802 6.02417 49.1311 5.92114 49.888 5.92114C50.6448 5.92114 51.272 5.93843 51.7709 5.97266V7.23636C52.9226 6.42835 54.1524 6.02417 55.4594 6.02417C57.1788 6.02417 58.4255 6.51412 59.1994 7.49432C59.9732 8.47452 60.3598 10.1082 60.3598 12.3949C60.3598 13.6161 60.1797 14.6904 59.8184 15.6191C59.4576 16.5478 58.9671 17.2697 58.3481 17.7855C57.1615 18.8172 55.7515 19.3331 54.1182 19.3331C53.4129 19.3331 52.7424 19.2643 52.1063 19.1267V21.345C53.1207 21.6198 53.7738 21.9383 54.0667 22.2993L53.8088 24.2852H47.3346L47.0767 22.2993C47.3 21.9899 47.773 21.6973 48.4953 21.4225V9.0934C47.8934 8.88695 47.4203 8.59479 47.0767 8.21656L47.3346 6.23059ZM53.8603 16.7026C54.7198 16.7026 55.3989 16.3201 55.8978 15.5549C56.3963 14.7902 56.6456 13.7325 56.6456 12.3823C56.6456 11.0322 56.5077 10.1085 56.2328 9.6096C55.9576 9.11105 55.459 8.86172 54.7368 8.86172C53.6362 8.86172 52.7591 9.11968 52.1059 9.63553V16.4966C52.6387 16.6346 53.2238 16.7026 53.8603 16.7026Z" fill="#262624"/>
<path d="M65.7871 2.98052V6.23056H69.4755V8.39701H65.7871V14.9227C65.7871 15.4732 65.8645 15.873 66.0188 16.1219C66.1737 16.3712 66.5433 16.4958 67.1282 16.4958C67.7131 16.4958 68.3403 16.3669 69.0108 16.109L69.7846 18.1209C68.4605 18.7916 67.1065 19.1267 65.7226 19.1267C64.3386 19.1267 63.4011 18.8302 62.9113 18.2369C62.4214 17.6436 62.1762 16.7797 62.1762 15.6446V8.39666H61.0151L60.7312 6.82316C61.0063 6.4968 61.5737 6.17005 62.4337 5.84295C62.6402 4.43335 63.1301 3.47872 63.9039 2.9798H65.7871V2.98052Z" fill="#262624"/>
<path d="M82.8743 19.2816L81.559 15.2062C81.2839 14.3809 81.0692 13.3492 80.9143 12.1111L80.8363 11.4922H80.4754C80.3036 12.8334 80.0454 14.0632 79.7016 15.1807L78.4896 19.2816H74.827L71.5769 9.14492C70.8377 8.88696 70.3302 8.57755 70.0557 8.21623L70.3132 6.23022H76.3488L76.6064 8.21623C76.2972 8.57714 75.7721 8.88696 75.0329 9.14492L76.5289 15.7221H76.8903C77.0792 14.8111 77.3028 13.8737 77.5609 12.9108L79.315 6.2821H82.2038L83.9315 12.8593L84.5763 15.7225H84.9376C85.573 12.8168 86.0036 10.865 86.2271 9.86752L86.382 9.14527C85.6082 8.87042 85.0925 8.56095 84.8344 8.21658L85.0925 6.23059H90.8184L91.0765 8.21658C90.7838 8.61246 90.2417 8.93882 89.4515 9.19678L86.2271 19.2819H82.8737L82.8743 19.2816Z" fill="#262624"/>
<path d="M97.3596 19.3334C95.2963 19.3334 93.7446 18.7834 92.7038 17.6828C91.6631 16.5827 91.1433 14.9836 91.1433 12.8852C91.1433 11.6128 91.324 10.5167 91.6854 9.59665C92.0462 8.67693 92.5366 7.96765 93.1556 7.46869C94.3588 6.50579 95.761 6.02417 97.3596 6.02417C98.9589 6.02417 100.184 6.4327 101.035 7.24934C101.886 8.06633 102.312 9.53217 102.312 11.6471C102.312 12.8852 101.702 13.5041 100.481 13.5041H94.8833C94.952 14.5874 95.2318 15.3528 95.7217 15.7995C96.2115 16.2469 96.99 16.4703 98.056 16.4703C98.6403 16.4703 99.1994 16.4019 99.7327 16.2639C100.265 16.1262 100.653 15.989 100.893 15.851L101.255 15.6447L102.028 17.7081C101.925 17.8284 101.774 17.9789 101.577 18.1595C101.379 18.3399 100.88 18.5809 100.081 18.8817C99.281 19.1825 98.374 19.3334 97.3596 19.3334ZM98.9847 11.2087C99.0187 10.968 99.0363 10.6759 99.0363 10.3319C99.0363 9.98784 98.8985 9.62258 98.6233 9.23567C98.3482 8.84876 97.8712 8.65534 97.1918 8.65534C96.5131 8.65534 95.9927 8.86173 95.6313 9.27422C95.2705 9.68705 95.0294 10.3834 94.9091 11.3636L98.9847 11.2087Z" fill="#262624"/>
<path d="M103.648 8.13913C103.648 7.88118 103.656 7.60632 103.673 7.31381C105.273 6.45428 106.992 6.02417 108.832 6.02417C110.672 6.02417 111.992 6.3725 112.791 7.06888C113.591 7.76519 113.99 8.92192 113.99 10.538V16.0319C114.592 16.1522 115.065 16.2988 115.409 16.4703V18.7142C114.532 19.127 113.277 19.3331 111.643 19.3331C111.471 18.886 111.325 18.3446 111.205 17.7081C110.465 18.7913 109.124 19.3331 107.181 19.3331C106.028 19.3331 105.044 18.9977 104.228 18.3273C103.411 17.6566 103.003 16.7455 103.003 15.5931C103.003 14.4408 103.385 13.534 104.15 12.8719C104.915 12.2101 106.055 11.8787 107.568 11.8787H110.379V10.6406C110.379 9.29944 109.666 8.62865 108.238 8.62865C107.705 8.62865 107.267 8.68022 106.922 8.78359C106.888 9.50583 106.784 10.0649 106.613 10.4601H104.085C103.793 9.85854 103.647 9.08472 103.647 8.13878L103.648 8.13913ZM108.29 16.7023C109.167 16.7023 109.863 16.4443 110.38 15.9285V13.8135H108.574C107.336 13.8135 106.717 14.2865 106.717 15.2322C106.717 15.6623 106.85 16.015 107.117 16.2898C107.383 16.565 107.775 16.7026 108.29 16.7026L108.29 16.7023Z" fill="#262624"/>
<path d="M116.286 0.814078C117.249 0.590732 118.143 0.478699 118.968 0.478699C119.794 0.478699 120.49 0.504636 121.057 0.55615V16.2639C121.729 16.5218 122.201 16.8143 122.476 17.1407L122.218 19.1267H116.286L116.028 17.1407C116.268 16.8143 116.741 16.5218 117.447 16.2639V3.67687C116.845 3.47046 116.372 3.17831 116.028 2.80006L116.286 0.814078ZM125.855 19.1271L121.29 12.4468L124.127 8.75836C123.835 8.58653 123.628 8.40607 123.508 8.21658L123.766 6.23059H129.44L129.698 8.21658C129.32 8.69823 128.606 9.07646 127.558 9.35131L125.081 12.1885L127.996 16.0315C129.062 16.2725 129.81 16.6421 130.24 17.1407L129.982 19.1267L125.855 19.1271Z" fill="#262624"/>
</g>
<defs>
<clipPath id="clip0_187_211">
<rect width="132" height="24.0533" fill="white" transform="translate(0 0.473389)"/>
</clipPath>
</defs>
</svg>
