<svg width="18" height="18" viewBox="0 0 18 18" fill="none" xmlns="http://www.w3.org/2000/svg">
<path d="M8.12189 1.7958C8.55073 1.18998 9.45607 1.18998 9.88491 1.7958L12.1925 5.05634L12.281 5.17886L12.4239 5.22651L16.2426 6.41773C16.9505 6.64236 17.2296 7.50004 16.7872 8.09224L14.3979 11.2983L14.3094 11.4209V11.5706L14.3639 15.5663C14.3707 16.3083 13.6424 16.8392 12.9344 16.601L9.14975 15.3212L9.0068 15.2736L8.86386 15.3212L5.07238 16.601C4.36445 16.8392 3.63611 16.3083 3.64292 15.5663L3.69056 11.5706V11.4209L3.60207 11.2983L1.21282 8.09224C0.770371 7.49323 1.04946 6.63555 1.75738 6.41773L5.57609 5.22651L5.71904 5.17886L5.80753 5.05634L8.11509 1.7958H8.12189Z" stroke="#262624"/>
</svg>
