<svg width="16" height="16" viewBox="0 0 16 16" fill="none" xmlns="http://www.w3.org/2000/svg">
<g clip-path="url(#clip0_187_135)">
<path d="M0.524666 13.8293C0.446682 11.7156 0.432506 10.6623 0.425415 8.54854C0.425415 7.67312 1.1485 6.96146 2.04172 6.95435C2.28984 6.95435 2.41035 6.95435 2.65847 6.95435C3.55169 6.95435 4.26767 7.66601 4.26767 8.55565C4.26767 10.705 4.28186 11.7796 4.31731 13.9218C4.3315 14.8114 3.64385 15.516 2.7719 15.4946C2.53087 15.4875 2.41035 15.4804 2.16933 15.4733C1.29737 15.4448 0.56011 14.7047 0.524666 13.8293Z" stroke="#262624" stroke-width="0.947368"/>
<path d="M6.09654 13.9432C6.06108 10.1214 6.06108 6.2925 6.09654 2.47072C6.10361 1.57399 6.81961 0.848058 7.69157 0.840942C7.93262 0.840942 8.05313 0.840942 8.29414 0.840942C9.16609 0.840942 9.88209 1.57399 9.88917 2.47072C9.92462 6.2925 9.92462 10.1214 9.88917 13.9432C9.88209 14.8328 9.16609 15.5658 8.29414 15.573C8.05313 15.573 7.93262 15.573 7.69157 15.573C6.81961 15.573 6.10361 14.8399 6.09654 13.9432Z" stroke="#262624" stroke-width="0.947368"/>
<path d="M11.6686 13.9218C11.7323 10.1783 11.7395 8.3066 11.6969 4.5631C11.6898 3.67348 12.3916 2.96179 13.2707 2.98313C13.5117 2.98313 13.6322 2.99025 13.8803 2.99737C14.7594 3.01872 15.4966 3.75177 15.5179 4.62715C15.603 8.3066 15.5888 10.1499 15.4612 13.8365C15.4328 14.7118 14.6885 15.452 13.8166 15.4805C13.5755 15.4876 13.455 15.4947 13.214 15.5018C12.342 15.5303 11.6544 14.8186 11.6686 13.929V13.9218Z" stroke="#262624" stroke-width="0.947368"/>
</g>
<defs>
<clipPath id="clip0_187_135">
<rect width="16" height="16" fill="white"/>
</clipPath>
</defs>
</svg>
