<svg width="398" height="512" viewBox="0 0 398 512" fill="none" xmlns="http://www.w3.org/2000/svg">
<rect width="398" height="512" rx="34" fill="black"/>
<rect x="230" y="243" width="120" height="28" rx="14" fill="white"/>
<rect x="48" y="243" width="120" height="28" rx="14" fill="white"/>
<rect x="94" y="317" width="120" height="28" rx="14" transform="rotate(-90 94 317)" fill="white"/>
<rect x="55.5269" y="442.38" width="120" height="28" rx="14" transform="rotate(-45 55.5269 442.38)" fill="white"/>
<rect x="140.38" y="462.179" width="120" height="28" rx="14" transform="rotate(-135 140.38 462.179)" fill="white"/>
<rect x="234" y="445.853" width="120" height="28" rx="14" transform="rotate(-45 234 445.853)" fill="white"/>
<rect x="230" y="377.799" width="35" height="35" rx="17.5" transform="rotate(-45 230 377.799)" fill="white"/>
<rect x="301" y="441.749" width="35" height="35" rx="17.5" transform="rotate(-45 301 441.749)" fill="white"/>
<rect x="48" y="55" width="302" height="90" rx="25" fill="white"/>
</svg>
