<svg width="509" height="414" viewBox="0 0 509 414" fill="none" xmlns="http://www.w3.org/2000/svg">
<path d="M493.307 119.212L406.742 352.348C406.597 352.74 406.223 353 405.805 353H102.697C102.278 353 101.904 352.739 101.759 352.346L15.6545 119.127C15.3109 118.196 16.386 117.387 17.1852 117.975L160.993 223.759C161.509 224.139 162.244 223.942 162.502 223.355L253.108 16.5357C253.454 15.746 254.57 15.735 254.932 16.5176L350.479 223.373C350.747 223.952 351.481 224.136 351.99 223.751L491.767 118.067C492.564 117.464 493.655 118.275 493.307 119.212Z" stroke="black" stroke-width="30"/>
<rect x="92" y="388" width="324" height="26" rx="13" fill="black"/>
</svg>
