<svg width="512" height="389" viewBox="0 0 512 389" fill="none" xmlns="http://www.w3.org/2000/svg">
<path d="M448.76 9C420.76 4.66197 329.76 -0.000110498 260.76 0C185.7 0.000120221 144.058 1.19934 71.7602 7.50004C41.2601 10.1581 16.2332 24.1227 6.76015 76.5001C2.26014 97.0001 -0.348404 155.368 0.260145 204C0.260145 204 -2.23985 273 8.26015 319.5C18.7601 366 38.826 375.25 74.7601 382C103.26 387.354 200.76 388.999 258.26 388.999C297.26 388.999 406.823 385.148 428.26 383.5C469.26 380.347 493.76 360.5 502.26 326C510.76 291.5 511.26 204 511.26 204C511.937 135.374 507.76 95.0001 502.26 65.0001C496.76 35 476.76 13.338 448.76 9Z" fill="#D8362A"/>
<path d="M361.76 204L193.76 296.5V105.5L361.76 204Z" fill="white"/>
</svg>
