<svg width="527" height="580" viewBox="0 0 527 580" fill="none" xmlns="http://www.w3.org/2000/svg">
<mask id="mask0_29_2952" style="mask-type:luminance" maskUnits="userSpaceOnUse" x="0" y="63" width="527" height="517">
<path fill-rule="evenodd" clip-rule="evenodd" d="M0.650879 63.0284H526.5V580H0.650879V63.0284Z" fill="white"/>
</mask>
<g mask="url(#mask0_29_2952)">
<path fill-rule="evenodd" clip-rule="evenodd" d="M462.427 556.6C448.82 564.795 432.987 570.713 415.536 574.557C403.953 577.086 391.61 578.756 378.762 579.464C331.517 582.347 277.19 573.495 224.837 555.791C213.101 551.845 201.467 547.444 190.035 542.588C104.903 506.775 30.8996 448.301 10.1604 380.519C-27.7266 256.792 53.6116 167.816 147.798 86.174C185.988 53.0418 235.763 57.7967 287.257 85.7693C299.295 92.2946 311.385 100.084 323.474 108.937C368.848 142.271 413.766 190.781 451.703 244.702C526.162 350.574 569.259 492.41 462.427 556.6Z" fill="#FDE6D6"/>
</g>
<path fill-rule="evenodd" clip-rule="evenodd" d="M422.736 157.754C413.949 140.04 410.732 117.621 428.35 110.403C448.027 102.345 479.379 115.375 488.504 144.941C494.337 163.834 492.333 190.208 476.218 200.345C462.428 209.025 433.515 179.48 422.736 157.754Z" fill="#E8E5EA"/>
<path fill-rule="evenodd" clip-rule="evenodd" d="M143.786 67.6225C143.77 67.6225 143.755 67.6225 143.74 67.6225C140.356 67.3899 136.962 67.2634 133.664 67.2432C133.31 67.2432 133.032 66.9599 133.032 66.6109C133.037 66.2618 133.315 65.9786 133.664 65.9786H133.669C136.997 65.9988 140.417 66.1253 143.831 66.358C144.18 66.3832 144.438 66.6867 144.418 67.0358C144.393 67.3696 144.114 67.6225 143.786 67.6225ZM113.466 68.5938C113.157 68.5938 112.884 68.3661 112.839 68.0525C112.788 67.7085 113.026 67.3848 113.375 67.3342C116.642 66.8587 120.052 66.5047 123.496 66.277C123.891 66.2113 124.149 66.5198 124.169 66.8689C124.195 67.2128 123.931 67.5163 123.582 67.5366C120.168 67.7642 116.794 68.1183 113.557 68.5836C113.526 68.5887 113.496 68.5938 113.466 68.5938ZM163.887 70.1264C163.847 70.1264 163.811 70.1214 163.776 70.1163C160.453 69.5194 157.094 69.0136 153.791 68.5988C153.442 68.5533 153.194 68.2397 153.24 67.8906C153.285 67.5467 153.573 67.314 153.948 67.3443C157.276 67.7591 160.655 68.2751 163.999 68.872C164.338 68.9327 164.57 69.2614 164.51 69.6054C164.454 69.9089 164.186 70.1264 163.887 70.1264ZM93.7484 73.1614C93.4803 73.1614 93.2324 72.9894 93.1464 72.7163C93.0402 72.3824 93.2274 72.0284 93.5612 71.9272C96.7632 70.9155 100.061 70.0151 103.369 69.2412C103.703 69.1603 104.052 69.3727 104.128 69.7116C104.209 70.0505 103.997 70.3895 103.658 70.4704C100.38 71.2393 97.1071 72.1346 93.9406 73.1311C93.8748 73.1513 93.8141 73.1614 93.7484 73.1614ZM183.655 74.5575C183.6 74.5575 183.544 74.5525 183.489 74.5373C180.201 73.647 176.903 72.8326 173.68 72.1093C173.336 72.0334 173.124 71.6945 173.2 71.3505C173.276 71.0116 173.594 70.7941 173.954 70.875C177.196 71.6034 180.514 72.4229 183.822 73.3132C184.156 73.4093 184.359 73.7532 184.262 74.0921C184.187 74.3704 183.934 74.5575 183.655 74.5575ZM203.014 80.577C202.943 80.577 202.872 80.5669 202.801 80.5416C199.635 79.4237 196.402 78.3564 193.206 77.3599C192.872 77.2537 192.685 76.8996 192.791 76.5708C192.892 76.2369 193.251 76.0447 193.58 76.156C196.792 77.1525 200.039 78.2299 203.221 79.3478C203.55 79.4642 203.727 79.8284 203.611 80.1571C203.52 80.4151 203.277 80.577 203.014 80.577ZM75.0173 80.7742C74.7896 80.7742 74.5671 80.6477 74.4558 80.4252C74.299 80.1166 74.4204 79.7372 74.734 79.5754C77.7134 78.0579 80.8293 76.6365 83.9908 75.3567C84.3044 75.2151 84.6787 75.382 84.8102 75.7057C84.9417 76.0295 84.7849 76.3987 84.4612 76.5303C81.3352 77.7948 78.2546 79.2011 75.3056 80.7034C75.2145 80.7489 75.1134 80.7742 75.0173 80.7742ZM221.912 87.9065C221.831 87.9065 221.75 87.8913 221.664 87.8559C218.568 86.5408 215.417 85.2559 212.291 84.047C211.967 83.9205 211.805 83.5513 211.932 83.2276C212.063 82.9038 212.427 82.7521 212.751 82.8684C215.887 84.0824 219.054 85.3723 222.16 86.6925C222.483 86.8291 222.63 87.1984 222.498 87.5221C222.392 87.7598 222.16 87.9065 221.912 87.9065ZM57.9201 91.5536C57.7279 91.5536 57.5458 91.4726 57.4194 91.3108C57.2069 91.0325 57.2575 90.6329 57.5357 90.4205C60.1913 88.3769 62.9987 86.4143 65.8769 84.5983C66.1754 84.4162 66.5649 84.5022 66.752 84.7956C66.9392 85.0941 66.8481 85.4835 66.5547 85.6656C63.7069 87.4664 60.9349 89.4038 58.3046 91.4271C58.1933 91.5131 58.0567 91.5536 57.9201 91.5536ZM240.334 96.3641C240.243 96.3641 240.147 96.3438 240.056 96.2983C237.011 94.796 233.94 93.3341 230.921 91.9481C230.607 91.8014 230.465 91.4221 230.612 91.1084C230.759 90.7898 231.133 90.6481 231.452 90.7948C234.477 92.1859 237.562 93.6578 240.617 95.1602C240.931 95.317 241.058 95.6964 240.906 96.01C240.794 96.2325 240.567 96.3641 240.334 96.3641ZM43.1447 105.348C42.9929 105.348 42.8462 105.297 42.7248 105.186C42.4618 104.958 42.4416 104.559 42.6743 104.296C44.9151 101.771 47.3026 99.3181 49.7762 97.0115C50.0291 96.7687 50.4287 96.7839 50.6664 97.0368C50.9092 97.2948 50.8941 97.6944 50.6361 97.9321C48.198 100.218 45.8357 102.641 43.6151 105.135C43.4937 105.277 43.3217 105.348 43.1447 105.348ZM258.276 105.803C258.17 105.803 258.069 105.778 257.968 105.722C255.029 104.078 252.034 102.454 249.075 100.896C248.766 100.734 248.645 100.35 248.807 100.041C248.974 99.7329 249.358 99.6115 249.662 99.7734C252.636 101.341 255.636 102.97 258.585 104.619C258.888 104.791 258.999 105.176 258.827 105.479C258.711 105.687 258.499 105.803 258.276 105.803ZM275.727 116.132C275.616 116.132 275.5 116.102 275.394 116.036C272.51 114.235 269.602 112.47 266.749 110.78C266.445 110.603 266.344 110.214 266.526 109.915C266.698 109.607 267.088 109.511 267.391 109.693C270.249 111.382 273.173 113.158 276.066 114.964C276.36 115.151 276.451 115.54 276.264 115.839C276.147 116.026 275.94 116.132 275.727 116.132ZM31.121 121.615C31.0046 121.615 30.8934 121.585 30.7871 121.519C30.4937 121.337 30.3976 120.948 30.5797 120.649C32.3603 117.751 34.2774 114.908 36.2653 112.207C36.4778 111.929 36.8723 111.873 37.1505 112.075C37.4338 112.283 37.4894 112.677 37.282 112.955C35.3143 115.631 33.4225 118.439 31.6572 121.312C31.5408 121.509 31.3334 121.615 31.121 121.615ZM292.673 127.271C292.546 127.271 292.42 127.23 292.314 127.159C289.511 125.222 286.684 123.32 283.917 121.499C283.624 121.307 283.543 120.917 283.735 120.624C283.927 120.341 284.317 120.255 284.61 120.442C287.387 122.268 290.22 124.175 293.027 126.112C293.32 126.315 293.391 126.709 293.194 126.992C293.067 127.169 292.87 127.271 292.673 127.271ZM309.067 139.132C308.935 139.132 308.804 139.092 308.688 139.006C305.976 136.957 303.245 134.929 300.564 132.986C300.281 132.779 300.22 132.385 300.422 132.106C300.63 131.818 301.024 131.757 301.307 131.965C303.993 133.907 306.735 135.941 309.451 137.999C309.73 138.207 309.78 138.606 309.573 138.885C309.446 139.046 309.259 139.132 309.067 139.132ZM21.9098 139.633C21.8289 139.633 21.7479 139.618 21.667 139.588C21.3433 139.451 21.1915 139.077 21.3281 138.758C22.6534 135.602 24.095 132.496 25.6075 129.532C25.7643 129.218 26.1436 129.092 26.4573 129.253C26.7709 129.41 26.8923 129.795 26.7355 130.103C25.2331 133.047 23.8067 136.123 22.4915 139.249C22.3903 139.491 22.1577 139.633 21.9098 139.633ZM324.955 151.738C324.814 151.738 324.672 151.692 324.551 151.596C322.001 149.477 319.356 147.327 316.685 145.207C316.412 144.99 316.366 144.595 316.584 144.322C316.806 144.049 317.201 144.009 317.469 144.216C320.15 146.34 322.805 148.495 325.36 150.62C325.628 150.842 325.668 151.242 325.446 151.51C325.319 151.662 325.137 151.738 324.955 151.738ZM15.2985 158.769C15.2378 158.769 15.1821 158.764 15.1265 158.749C14.7927 158.652 14.5903 158.303 14.6864 157.965C15.607 154.672 16.6187 151.404 17.7012 148.258C17.8175 147.929 18.1817 147.742 18.5055 147.863C18.8343 147.979 19.0113 148.339 18.9 148.667C17.8226 151.793 16.816 155.036 15.9055 158.309C15.8296 158.587 15.5716 158.769 15.2985 158.769ZM340.302 165.071C340.145 165.071 339.999 165.016 339.877 164.905C337.384 162.638 334.829 160.367 332.285 158.157C332.022 157.934 331.996 157.53 332.224 157.266C332.452 156.998 332.851 156.983 333.114 157.206C335.669 159.421 338.223 161.698 340.727 163.969C340.985 164.207 341.005 164.606 340.768 164.864C340.641 165.001 340.474 165.071 340.302 165.071ZM10.9382 178.552C10.9028 178.552 10.8674 178.547 10.832 178.542C10.488 178.486 10.2554 178.158 10.3161 177.814C10.8775 174.45 11.525 171.096 12.2382 167.839C12.3141 167.5 12.6479 167.287 12.9919 167.353C13.3308 167.429 13.5483 167.768 13.4725 168.107C12.7643 171.344 12.1219 174.682 11.5604 178.021C11.5098 178.33 11.2417 178.552 10.9382 178.552ZM354.987 179.053C354.825 179.053 354.663 178.992 354.542 178.866C352.149 176.483 349.706 174.106 347.288 171.804C347.035 171.561 347.025 171.162 347.268 170.909C347.505 170.661 347.91 170.646 348.158 170.889C350.586 173.2 353.034 175.583 355.432 177.97C355.68 178.218 355.68 178.618 355.432 178.866C355.31 178.992 355.149 179.053 354.987 179.053ZM368.988 193.712C368.816 193.712 368.649 193.641 368.523 193.505C366.252 191.011 363.93 188.517 361.618 186.099C361.38 185.851 361.391 185.447 361.638 185.209C361.896 184.971 362.291 184.971 362.534 185.229C364.855 187.652 367.182 190.151 369.459 192.655C369.696 192.913 369.676 193.312 369.413 193.545C369.297 193.656 369.145 193.712 368.988 193.712ZM8.49503 198.659C8.47985 198.659 8.46468 198.659 8.44445 198.659C8.09542 198.629 7.83744 198.325 7.86274 197.981C8.13083 194.572 8.46974 191.168 8.86935 187.869C8.90981 187.526 9.19308 187.293 9.57246 187.318C9.92148 187.359 10.1643 187.672 10.1238 188.021C9.72927 191.304 9.39036 194.688 9.12226 198.077C9.10203 198.406 8.82382 198.659 8.49503 198.659ZM382.241 209.054C382.059 209.054 381.877 208.973 381.75 208.821C379.646 206.252 377.456 203.646 375.235 201.077C375.008 200.814 375.038 200.414 375.306 200.187C375.569 199.954 375.969 199.989 376.196 200.252C378.422 202.827 380.622 205.442 382.732 208.022C382.954 208.29 382.914 208.69 382.641 208.912C382.524 209.008 382.383 209.054 382.241 209.054ZM7.67563 218.907C7.3266 218.902 7.04333 218.619 7.04333 218.27C7.05851 214.876 7.13439 211.462 7.2659 208.118C7.28108 207.774 7.54917 207.486 7.92349 207.511C8.27251 207.526 8.54566 207.82 8.53049 208.169C8.39897 211.497 8.3231 214.896 8.30792 218.275C8.30792 218.624 8.02465 218.907 7.67563 218.907ZM394.639 225.094C394.442 225.094 394.25 225.008 394.128 224.836C392.14 222.11 390.097 219.383 388.053 216.743C387.841 216.464 387.891 216.07 388.169 215.852C388.443 215.64 388.837 215.685 389.055 215.969C391.108 218.619 393.157 221.356 395.15 224.092C395.352 224.376 395.292 224.77 395.013 224.973C394.897 225.059 394.765 225.094 394.639 225.094ZM8.24711 239.171C7.91326 239.171 7.63505 238.908 7.61481 238.574C7.41248 235.145 7.26073 231.725 7.16968 228.427C7.15956 228.078 7.43271 227.785 7.78174 227.775H7.80197C8.14088 227.775 8.42415 228.048 8.43427 228.392C8.52532 231.68 8.67707 235.079 8.8794 238.498C8.89963 238.847 8.63154 239.146 8.28252 239.171H8.24711ZM406.046 241.847C405.838 241.847 405.631 241.746 405.509 241.554C403.729 238.746 401.857 235.904 399.95 233.106C399.758 232.818 399.829 232.423 400.117 232.226C400.4 232.029 400.8 232.105 400.997 232.393C402.909 235.2 404.791 238.058 406.577 240.876C406.764 241.174 406.678 241.564 406.384 241.751C406.278 241.817 406.162 241.847 406.046 241.847ZM416.284 259.339C416.061 259.339 415.844 259.217 415.727 259.005C414.149 256.071 412.485 253.107 410.775 250.188C410.603 249.89 410.704 249.505 411.003 249.323C411.296 249.141 411.691 249.247 411.868 249.551C413.582 252.48 415.257 255.459 416.84 258.408C417.007 258.712 416.891 259.101 416.582 259.263C416.491 259.314 416.385 259.339 416.284 259.339ZM10.0328 259.364C9.71413 259.364 9.44098 259.126 9.40557 258.803C9.00596 255.398 8.66199 251.994 8.36861 248.706C8.33826 248.357 8.59624 248.049 8.9402 248.018C9.34993 247.983 9.59779 248.246 9.62814 248.59C9.91646 251.873 10.2655 255.262 10.66 258.661C10.7005 259.005 10.4526 259.319 10.1036 259.359C10.0783 259.364 10.0581 259.364 10.0328 259.364ZM425.131 277.564C424.888 277.564 424.655 277.422 424.549 277.185C423.214 274.104 421.792 271.014 420.33 268.004C420.179 267.69 420.31 267.311 420.624 267.159C420.932 267.002 421.312 267.134 421.468 267.447C422.94 270.482 424.367 273.583 425.712 276.679C425.849 277.003 425.702 277.372 425.384 277.513C425.303 277.544 425.217 277.564 425.131 277.564ZM12.8806 279.436C12.5771 279.436 12.309 279.213 12.2584 278.905C11.6868 275.521 11.1658 272.147 10.7055 268.874C10.6549 268.53 10.8977 268.206 11.2416 268.161C11.5654 268.105 11.9043 268.348 11.9549 268.697C12.4152 271.959 12.9362 275.323 13.5027 278.697C13.5634 279.041 13.3307 279.365 12.9868 279.426C12.9514 279.431 12.916 279.436 12.8806 279.436ZM432.273 296.513C432.005 296.513 431.757 296.346 431.671 296.078C430.665 292.931 429.547 289.729 428.343 286.548C428.221 286.219 428.383 285.855 428.712 285.733C429.036 285.592 429.4 285.769 429.527 286.098C430.741 289.3 431.863 292.527 432.875 295.688C432.981 296.022 432.799 296.381 432.465 296.487C432.4 296.508 432.334 296.513 432.273 296.513ZM16.6996 299.34C16.4062 299.34 16.1482 299.138 16.0825 298.839C15.3743 295.562 14.6914 292.213 14.0592 288.895C13.9883 288.551 14.216 288.222 14.5599 288.156C14.8938 288.065 15.2327 288.313 15.2984 288.657C15.9307 291.965 16.6086 295.304 17.3167 298.576C17.3926 298.915 17.1751 299.254 16.8311 299.325C16.7907 299.335 16.7451 299.34 16.6996 299.34ZM437.331 316.114C437.038 316.114 436.77 315.901 436.714 315.598C436.087 312.376 435.338 309.068 434.483 305.764C434.397 305.426 434.6 305.082 434.939 304.996C435.268 304.91 435.617 305.112 435.708 305.451C436.568 308.774 437.326 312.108 437.954 315.36C438.019 315.699 437.797 316.033 437.453 316.099C437.412 316.109 437.372 316.114 437.331 316.114ZM21.409 319.053C21.1257 319.053 20.8728 318.86 20.7969 318.577C19.942 315.31 19.1175 312.027 18.3335 308.739C18.2526 308.395 18.4599 308.056 18.7989 307.975C19.1327 307.894 19.4817 308.101 19.5627 308.44C20.3518 311.723 21.1662 314.996 22.021 318.259C22.107 318.597 21.9097 318.941 21.5708 319.032C21.5152 319.043 21.4595 319.053 21.409 319.053ZM439.835 336.185C439.501 336.185 439.223 335.922 439.203 335.583C439.031 332.28 438.733 328.901 438.308 325.548C438.262 325.204 438.51 324.885 438.854 324.845C439.233 324.814 439.517 325.047 439.562 325.391C439.987 328.775 440.296 332.184 440.468 335.518C440.488 335.867 440.22 336.165 439.871 336.185H439.835ZM27.0996 339.018C26.8316 339.018 26.5837 338.846 26.4977 338.573L26.3459 338.082C25.3596 334.87 24.3884 331.597 23.4728 328.36C23.3767 328.026 23.5689 327.677 23.9078 327.581C24.2569 327.49 24.5958 327.682 24.6868 328.016C25.6074 331.243 26.5736 334.511 27.56 337.718L27.7016 338.199C27.8078 338.532 27.6207 338.881 27.2868 338.988C27.2261 339.008 27.1603 339.018 27.0996 339.018ZM439.507 356.419C439.491 356.419 439.481 356.419 439.466 356.419C439.117 356.393 438.854 356.09 438.879 355.741C439.112 352.433 439.274 349.044 439.35 345.665C439.355 345.316 439.603 345.063 439.997 345.047C440.341 345.053 440.619 345.341 440.614 345.695C440.539 349.094 440.377 352.503 440.139 355.832C440.119 356.166 439.835 356.419 439.507 356.419ZM33.367 358.28C33.109 358.28 32.8611 358.118 32.7701 357.855C31.6775 354.663 30.6051 351.456 29.558 348.239C29.4518 347.911 29.6339 347.551 29.9677 347.445C30.3016 347.339 30.6557 347.521 30.7619 347.85C31.809 351.057 32.8763 354.259 33.9689 357.446C34.0802 357.774 33.9031 358.133 33.5743 358.25C33.5035 358.27 33.4378 358.28 33.367 358.28ZM437.023 376.5C436.987 376.5 436.952 376.495 436.911 376.49C436.568 376.424 436.34 376.096 436.401 375.757C436.982 372.499 437.488 369.145 437.908 365.782C437.948 365.433 438.282 365.185 438.611 365.23C438.96 365.276 439.203 365.589 439.162 365.938C438.743 369.328 438.232 372.701 437.645 375.974C437.589 376.283 437.326 376.5 437.023 376.5ZM40.2209 377.32C39.968 377.32 39.7252 377.163 39.6342 376.91C38.4404 373.759 37.2719 370.592 36.1237 367.415C36.0023 367.087 36.1742 366.722 36.503 366.601C36.8369 366.49 37.191 366.657 37.3124 366.985C38.4556 370.157 39.624 373.319 40.8128 376.46C40.9342 376.789 40.7723 377.153 40.4486 377.274C40.3727 377.305 40.2968 377.32 40.2209 377.32ZM47.7073 396.157C47.4594 396.157 47.2267 396.01 47.1256 395.768C45.8256 392.657 44.5559 389.526 43.3015 386.369C43.17 386.045 43.3318 385.676 43.6556 385.55C43.9692 385.423 44.3435 385.575 44.475 385.899C45.7244 389.05 46.9991 392.176 48.289 395.282C48.4256 395.606 48.2738 395.975 47.9501 396.106C47.8692 396.142 47.7882 396.157 47.7073 396.157ZM432.324 396.172C432.268 396.172 432.207 396.167 432.141 396.147C431.808 396.046 431.62 395.692 431.722 395.358C432.683 392.161 433.568 388.883 434.342 385.625C434.428 385.287 434.752 385.079 435.106 385.155C435.445 385.241 435.657 385.58 435.576 385.919C434.792 389.202 433.902 392.5 432.931 395.722C432.85 395.995 432.597 396.172 432.324 396.172ZM55.8209 414.736C55.5832 414.736 55.3555 414.6 55.2493 414.367C53.8481 411.307 52.4622 408.216 51.1015 405.105C50.9649 404.787 51.1116 404.412 51.4303 404.271C51.7489 404.139 52.1232 404.276 52.2649 404.599C53.6205 407.705 54.9964 410.786 56.3975 413.841C56.5442 414.16 56.4026 414.534 56.089 414.681C56.003 414.721 55.9119 414.736 55.8209 414.736ZM425.333 415.156C425.247 415.156 425.161 415.141 425.075 415.101C424.756 414.964 424.615 414.59 424.751 414.271C426.097 411.216 427.361 408.069 428.525 404.918C428.646 404.594 429.005 404.422 429.339 404.544C429.663 404.665 429.83 405.029 429.708 405.358C428.54 408.535 427.26 411.701 425.91 414.777C425.803 415.015 425.576 415.156 425.333 415.156ZM64.6073 433.002C64.3746 433.002 64.152 432.876 64.0407 432.658C62.5283 429.653 61.031 426.618 59.554 423.553C59.4022 423.239 59.5337 422.86 59.8524 422.708C60.1761 422.562 60.5454 422.688 60.6972 423.002C62.1691 426.057 63.6563 429.087 65.1687 432.086C65.3255 432.4 65.2041 432.779 64.8905 432.936C64.7995 432.982 64.7034 433.002 64.6073 433.002ZM416.086 433.164C415.975 433.164 415.864 433.139 415.763 433.078C415.459 432.896 415.363 432.511 415.54 432.213C417.255 429.314 418.899 426.34 420.421 423.366C420.583 423.052 420.958 422.931 421.271 423.093C421.585 423.255 421.706 423.634 421.549 423.943C420.012 426.937 418.358 429.937 416.628 432.855C416.511 433.053 416.299 433.164 416.086 433.164ZM404.796 449.958C404.665 449.958 404.528 449.917 404.412 449.831C404.139 449.624 404.083 449.224 404.29 448.946C406.319 446.265 408.292 443.508 410.153 440.741C410.35 440.453 410.74 440.372 411.033 440.569C411.321 440.767 411.397 441.161 411.2 441.449C409.328 444.237 407.346 447.014 405.302 449.71C405.176 449.872 404.988 449.958 404.796 449.958ZM74.1018 450.914C73.8792 450.914 73.6668 450.797 73.5504 450.59C71.9368 447.697 70.308 444.697 68.7045 441.672C68.5427 441.363 68.654 440.979 68.9625 440.817C69.2761 440.665 69.6555 440.772 69.8174 441.08C71.4209 444.095 73.0446 447.09 74.6532 449.973C74.8251 450.276 74.7139 450.666 74.4104 450.833C74.3142 450.888 74.208 450.914 74.1018 450.914ZM391.756 465.426C391.604 465.426 391.447 465.37 391.326 465.254C391.073 465.021 391.058 464.617 391.295 464.364C393.602 461.89 395.858 459.346 397.998 456.812C398.225 456.554 398.625 456.513 398.888 456.736C399.156 456.963 399.191 457.363 398.964 457.631C396.809 460.181 394.543 462.735 392.221 465.229C392.095 465.36 391.928 465.426 391.756 465.426ZM84.3702 468.39C84.1628 468.39 83.9554 468.284 83.834 468.092C82.0788 465.254 80.3134 462.33 78.5885 459.401C78.4165 459.098 78.5126 458.708 78.8161 458.531C79.1146 458.354 79.5041 458.461 79.6811 458.759C81.401 461.683 83.1562 464.596 84.9115 467.424C85.0936 467.722 85.0025 468.112 84.7041 468.294C84.6029 468.36 84.4865 468.39 84.3702 468.39ZM377.284 479.584C377.107 479.584 376.935 479.513 376.808 479.372C376.576 479.114 376.601 478.714 376.859 478.482C379.398 476.205 381.877 473.889 384.239 471.582C384.487 471.339 384.892 471.349 385.129 471.592C385.377 471.845 385.372 472.245 385.119 472.487C382.747 474.804 380.253 477.136 377.704 479.422C377.582 479.529 377.431 479.584 377.284 479.584ZM95.4985 485.336C95.2962 485.336 95.0989 485.24 94.9775 485.063C93.0655 482.316 91.1534 479.483 89.297 476.645C89.0997 476.357 89.1857 475.963 89.4791 475.77C89.7674 475.583 90.1569 475.664 90.3542 475.958C92.2056 478.785 94.1126 481.603 96.0145 484.339C96.2168 484.628 96.146 485.022 95.8577 485.219C95.7464 485.295 95.625 485.336 95.4985 485.336ZM361.674 492.498C361.482 492.498 361.294 492.412 361.173 492.25C360.961 491.972 361.011 491.578 361.289 491.365C363.975 489.301 366.641 487.187 369.201 485.073C369.469 484.845 369.863 484.885 370.086 485.154C370.308 485.427 370.273 485.821 370.005 486.044C367.43 488.173 364.759 490.298 362.058 492.367C361.942 492.458 361.805 492.498 361.674 492.498ZM107.573 501.608C107.391 501.608 107.204 501.527 107.077 501.371C105.034 498.786 102.955 496.074 100.896 493.308C100.688 493.029 100.749 492.63 101.027 492.422C101.311 492.22 101.705 492.276 101.918 492.554C103.961 495.311 106.03 498.012 108.069 500.581C108.286 500.855 108.24 501.254 107.967 501.472C107.851 501.563 107.714 501.608 107.573 501.608ZM345.199 504.289C344.996 504.289 344.799 504.188 344.673 504.006C344.48 503.718 344.556 503.323 344.85 503.131C347.662 501.244 350.459 499.307 353.166 497.374C353.444 497.167 353.843 497.238 354.046 497.521C354.248 497.804 354.187 498.204 353.904 498.406C351.188 500.344 348.38 502.286 345.553 504.183C345.447 504.254 345.32 504.289 345.199 504.289ZM328.066 515.104C327.849 515.104 327.641 514.993 327.52 514.795C327.343 514.497 327.439 514.108 327.742 513.925C330.686 512.17 333.59 510.395 336.367 508.639C336.665 508.462 337.055 508.543 337.242 508.837C337.424 509.135 337.338 509.525 337.045 509.712C334.252 511.467 331.344 513.253 328.39 515.013C328.289 515.074 328.177 515.104 328.066 515.104ZM120.735 517.016C120.568 517.016 120.396 516.945 120.274 516.814C118.023 514.381 115.752 511.821 113.526 509.216C113.304 508.953 113.329 508.548 113.597 508.326C113.865 508.103 114.265 508.129 114.488 508.397C116.703 510.992 118.964 513.531 121.2 515.954C121.438 516.212 121.423 516.611 121.165 516.849C121.043 516.96 120.891 517.016 120.735 517.016ZM310.428 525.089C310.2 525.089 309.982 524.968 309.871 524.76C309.704 524.452 309.821 524.067 310.124 523.9C313.109 522.292 316.063 520.663 318.986 519.009C319.29 518.837 319.674 518.943 319.851 519.247C320.018 519.55 319.912 519.935 319.609 520.112C316.68 521.766 313.716 523.4 310.726 525.013C310.63 525.064 310.529 525.089 310.428 525.089ZM135.141 531.26C134.989 531.26 134.837 531.205 134.721 531.099C132.237 528.873 129.749 526.526 127.331 524.123C127.078 523.875 127.078 523.476 127.326 523.228C127.569 522.98 127.968 522.98 128.216 523.223C130.624 525.615 133.097 527.942 135.566 530.158C135.824 530.39 135.844 530.79 135.611 531.053C135.485 531.19 135.313 531.26 135.141 531.26ZM292.42 534.381C292.187 534.381 291.96 534.255 291.853 534.032C291.697 533.719 291.828 533.334 292.137 533.183C295.172 531.675 298.186 530.158 301.176 528.615C301.479 528.458 301.859 528.579 302.026 528.888C302.183 529.197 302.066 529.581 301.753 529.743C298.758 531.286 295.743 532.808 292.698 534.316C292.607 534.361 292.511 534.381 292.42 534.381ZM274.124 543.117C273.886 543.117 273.659 542.981 273.552 542.748C273.406 542.434 273.542 542.055 273.861 541.913C276.931 540.492 279.992 539.055 283.027 537.609C283.335 537.467 283.725 537.593 283.871 537.907C284.023 538.221 283.887 538.6 283.573 538.752C280.528 540.203 277.467 541.635 274.387 543.056C274.306 543.097 274.215 543.117 274.124 543.117ZM150.958 543.901C150.837 543.901 150.71 543.861 150.599 543.785C147.893 541.883 145.156 539.829 142.47 537.674C142.197 537.457 142.152 537.057 142.369 536.784C142.597 536.516 142.991 536.47 143.259 536.688C145.925 538.823 148.636 540.866 151.322 542.748C151.611 542.95 151.682 543.345 151.479 543.633C151.358 543.805 151.161 543.901 150.958 543.901ZM255.671 551.388C255.428 551.388 255.196 551.246 255.089 551.008C254.953 550.689 255.099 550.315 255.418 550.174C258.514 548.823 261.599 547.462 264.665 546.086C264.983 545.945 265.358 546.086 265.499 546.405C265.641 546.724 265.499 547.098 265.186 547.24C262.11 548.616 259.025 549.981 255.924 551.332C255.843 551.367 255.757 551.388 255.671 551.388ZM168.339 554.266C168.243 554.266 168.146 554.246 168.055 554.2C165.086 552.738 162.082 551.104 159.122 549.329C158.824 549.152 158.728 548.762 158.905 548.464C159.082 548.165 159.471 548.064 159.775 548.246C162.704 549.997 165.678 551.62 168.617 553.067C168.931 553.224 169.057 553.598 168.905 553.912C168.794 554.139 168.566 554.266 168.339 554.266ZM236.991 559.233C236.733 559.233 236.49 559.071 236.399 558.813C236.277 558.484 236.449 558.12 236.778 558.004C238.245 557.473 239.747 556.886 241.245 556.254C242.868 555.566 244.497 554.878 246.121 554.185C246.44 554.053 246.814 554.195 246.951 554.514C247.087 554.837 246.94 555.212 246.622 555.343C244.993 556.041 243.364 556.734 241.735 557.422C240.218 558.059 238.695 558.656 237.208 559.193C237.137 559.218 237.061 559.233 236.991 559.233ZM187.232 561.413C187.181 561.413 187.125 561.403 187.075 561.393C183.863 560.543 180.605 559.491 177.388 558.267C177.059 558.146 176.892 557.776 177.019 557.453C177.145 557.124 177.509 556.962 177.833 557.088C181.015 558.292 184.232 559.334 187.393 560.169C187.732 560.26 187.935 560.604 187.844 560.938C187.768 561.226 187.515 561.413 187.232 561.413ZM217.309 563.821C216.985 563.821 216.712 563.578 216.676 563.254C216.641 562.905 216.894 562.597 217.238 562.556C220.541 562.207 223.874 561.641 227.142 560.872C227.496 560.786 227.825 561.008 227.901 561.342C227.987 561.681 227.774 562.025 227.435 562.101C224.112 562.885 220.728 563.457 217.374 563.816C217.349 563.821 217.329 563.821 217.309 563.821ZM207.192 564.256H207.182C203.828 564.19 200.419 563.907 197.04 563.421C196.696 563.371 196.458 563.052 196.509 562.708C196.554 562.359 196.843 562.111 197.222 562.172C200.545 562.652 203.904 562.926 207.207 562.991C207.551 563.001 207.834 563.29 207.824 563.639C207.819 563.983 207.536 564.256 207.192 564.256Z" fill="#D8D5DB"/>
<mask id="mask1_29_2952" style="mask-type:luminance" maskUnits="userSpaceOnUse" x="47" y="83" width="369" height="497">
<path fill-rule="evenodd" clip-rule="evenodd" d="M47.9452 83.0879H415.878V580H47.9452V83.0879Z" fill="white"/>
</mask>
<g mask="url(#mask1_29_2952)">
<path fill-rule="evenodd" clip-rule="evenodd" d="M390.699 500.452C387.866 501.211 385.033 502.678 382.757 505.257C381.442 506.775 379.722 509.608 378.205 512.592C377.85 502.374 377.496 493.674 377.142 488.312C378.103 488.211 378.66 488.211 378.66 488.211C378.66 486.997 378.66 485.783 378.609 484.468C378.356 459.833 375.675 416.989 372.135 374.297C373.399 376.927 374.613 379.355 375.777 381.53C375.827 382.289 375.827 383.048 375.979 383.857C377.85 394.075 387.208 450.627 389.94 484.72C390.446 490.841 390.699 496.203 390.699 500.452ZM413.208 375.814V375.713C410.274 366.153 400.411 337.674 389.181 309.398L401.625 305.149C401.625 305.149 365.205 240.352 343.909 226.087C343.858 226.037 343.808 226.037 343.757 225.986C336.271 219.006 325.345 214.453 309.006 212.582C308.905 199.076 309.917 176.313 311.08 158.862C319.477 156.94 323.524 147.076 324.08 144.901C325.244 140.45 324.181 136.757 322.006 134.38C322.664 128.866 323.777 118.142 323.473 108.936C323.22 100.489 321.855 93.3563 317.909 92.4964C317.96 92.3447 318.061 92.2435 318.111 92.1423C319.427 87.9439 316.948 83.2902 316.847 83.0879L314.621 84.3019C315.228 85.3641 316.493 88.7027 315.683 91.333C311.94 87.1852 300.306 85.5159 287.256 85.7688C268.995 86.0723 248.053 90.2707 242.388 96.8466C238.442 101.399 239.606 103.878 243.703 104.991C243.096 109.24 242.843 112.932 242.742 116.321C242.135 117.889 241.579 119.508 241.022 121.228C239.555 122.239 238.139 123.706 237.077 125.983L239.404 127.045C239.454 126.944 239.505 126.893 239.555 126.792C238.948 129.372 238.392 132.002 237.987 134.885C233.435 166.247 225.999 197.457 257.108 197.811C257.057 201.352 256.855 204.792 256.501 208.029C256.248 210.609 255.894 213.037 255.439 215.212C243.602 218.095 234.345 222.648 227.921 228.768C205.057 247.636 176.174 308.235 176.174 308.235L185.886 313.04C178.703 327.001 171.622 341.266 166.31 352.849C141.727 335.853 98.5287 304.34 85.7816 290.531C85.7816 290.48 85.731 290.48 85.6805 290.429C86.1863 285.118 85.2252 276.519 83.8089 271.663C83.8089 271.562 83.8089 271.461 83.7583 271.309C83.6571 271.056 83.5559 270.904 83.5054 270.702C83.4042 270.398 83.303 270.044 83.2019 269.791C82.9489 269.134 82.7466 268.679 82.5443 268.274C79.1552 260.788 73.7933 257.854 70.6066 247.889C68.9373 242.578 64.8401 244.753 63.272 248.293L51.2331 221.383L47.9452 222.85L63.4237 257.601C59.7817 255.982 56.595 255.021 54.4199 255.78C51.4354 256.791 48.1475 271.815 49.5639 277.177C50.9802 282.488 65.4977 299.585 70.9101 302.519C71.3147 302.721 71.77 302.873 72.1747 302.924C80.9256 315.165 138.945 384.059 162.264 395.997C176.731 403.332 187.606 397.009 191.198 387.6C195.851 380.114 204.4 365.495 213.707 348.6C210.672 395.643 204.855 448.655 193.878 485.833C194.89 485.985 195.952 486.137 197.015 486.289C193.929 501.717 191.653 522.001 190.034 542.588C201.466 547.444 213.1 551.845 224.836 555.79C277.189 573.494 331.516 582.347 378.761 579.463C379.52 577.136 379.874 574.708 379.823 572.129C379.57 562.012 379.267 549.619 378.963 537.378C381.493 543.954 384.78 549.366 387.411 550.732C390.193 552.148 403.345 544.105 406.228 539.3C409.06 534.646 411.236 512.288 409.566 506.32C409.465 505.915 409.162 505.611 408.959 505.257C409.566 501.919 410.477 494.635 411.488 485.125C414.726 453.055 418.57 395.441 413.208 375.814Z" fill="#D1CDD3"/>
</g>
<path fill-rule="evenodd" clip-rule="evenodd" d="M284.024 278.786L251.049 257.268C251.049 257.268 218.276 317.579 202.114 352.866C177.546 335.854 134.348 304.356 121.596 290.516C121.56 290.481 121.525 290.461 121.489 290.425C121.99 285.104 121.029 276.53 119.628 271.669C119.598 271.542 119.593 271.441 119.547 271.305C119.476 271.077 119.38 270.895 119.304 270.678C119.203 270.394 119.112 270.035 119.011 269.792C118.743 269.14 118.535 268.664 118.348 268.255C114.959 260.814 109.587 257.839 106.421 247.905C104.215 240.97 97.8568 246.787 98.4841 251.79C98.4841 251.79 99.43 255.037 100.497 258.163C96.2938 256.16 92.6619 254.946 90.2137 255.771C87.2495 256.767 83.9363 271.811 85.3577 277.188C86.7538 282.479 101.291 299.586 106.734 302.53C107.129 302.742 107.544 302.859 107.968 302.924C116.745 315.181 174.764 384.081 198.088 395.978C212.535 403.348 223.385 397 227.012 387.611C238.039 369.71 271.409 311.448 284.024 278.786Z" fill="#FFAD69"/>
<path fill-rule="evenodd" clip-rule="evenodd" d="M288.512 241.733C293.51 266.873 273.418 338.413 273.418 338.413L211.959 308.251C211.959 308.251 275.33 175.413 288.512 241.733Z" fill="#EA3939"/>
<path fill-rule="evenodd" clip-rule="evenodd" d="M415.637 572.128C415.637 572.938 415.637 573.747 415.536 574.556C403.953 577.085 391.61 578.755 378.762 579.463C331.517 582.346 277.19 573.494 224.837 555.79C226.658 528.778 229.49 500.603 233.84 481.584L378.61 484.467L389.941 484.72L411.489 485.125L412.754 485.175C413.766 496.708 414.98 543.397 415.637 572.128Z" fill="#232323"/>
<path fill-rule="evenodd" clip-rule="evenodd" d="M332.95 211.739C372.678 213.049 386.108 226.459 392.957 249.651C400.732 275.985 414.43 435.04 414.43 488.188C414.43 488.188 295.539 496.61 229.674 485.815C250.322 416.061 252.558 290.629 252.973 253.263C253.281 225.224 282.584 210.075 332.95 211.739Z" fill="#FF4E4A"/>
<path fill-rule="evenodd" clip-rule="evenodd" d="M297.952 146.699C294.037 143.755 273.621 146.426 279.504 104.862C281.644 89.6966 295.888 99.8184 305.969 101.842C316.051 103.865 309.642 147.448 309.642 147.448L297.952 146.699Z" fill="#232323"/>
<path fill-rule="evenodd" clip-rule="evenodd" d="M348.782 136.743C347.088 147.76 343.699 207.367 345.11 221.207C346.521 235.052 279.569 239.007 288.325 223.751C297.086 208.495 290.869 157.927 290.869 157.927L348.782 136.743Z" fill="#FFAD69"/>
<path fill-rule="evenodd" clip-rule="evenodd" d="M344.146 138.427L290.877 157.932C290.877 157.932 294.473 187.387 292.303 208.121C332.922 204.98 343.347 153.678 344.035 143.799C344.146 141.938 344.202 140.142 344.146 138.427Z" fill="#D88344"/>
<path fill-rule="evenodd" clip-rule="evenodd" d="M273.774 134.868C268.837 168.896 260.455 202.822 301.701 197.238C342.952 191.653 349.361 138.768 349.24 128.793C348.597 75.5641 283.481 67.9564 273.774 134.868Z" fill="#FFAD69"/>
<path fill-rule="evenodd" clip-rule="evenodd" d="M353.687 92.4772C353.738 92.3457 353.849 92.2546 353.895 92.1231C355.235 87.95 352.767 83.3013 352.66 83.1041L350.435 84.3029C350.455 84.3434 352.478 88.1928 351.487 91.3239C342.453 81.3438 287.878 85.5978 278.171 96.8729C265.839 111.198 303.766 104.739 325.138 101.122C328.133 113.636 341.699 134.36 345.609 137.304L357.299 138.058C357.299 138.058 363.678 94.6725 353.687 92.4772Z" fill="#232323"/>
<path fill-rule="evenodd" clip-rule="evenodd" d="M444.76 505.241C447.38 490.683 456.01 401.257 449.024 375.834C449.014 375.793 449.019 375.753 449.009 375.707C444.133 359.794 419.918 291.197 402.386 258.718L364.605 269.806C364.605 269.806 396.225 352.327 411.557 381.514C411.602 382.298 411.602 383.067 411.754 383.876C414.01 395.915 426.615 472.301 426.474 500.436C423.682 501.215 420.839 502.682 418.578 505.261C415.7 508.549 410.682 517.993 411.036 522.182C412.042 534.134 418.684 548.374 423.231 550.726C426.014 552.162 439.125 544.084 442.003 539.324C444.836 534.64 447.021 512.298 445.352 506.339C445.24 505.929 444.967 505.6 444.76 505.241Z" fill="#FFAD69"/>
<path fill-rule="evenodd" clip-rule="evenodd" d="M379.71 226.094C401.021 240.338 437.401 305.131 437.401 305.131L372.619 327.261C372.619 327.261 323.492 188.521 379.71 226.094Z" fill="#FF4E4A"/>
<path fill-rule="evenodd" clip-rule="evenodd" d="M308.508 133.184C308.64 134.843 307.744 136.264 306.5 136.365C305.256 136.462 304.143 135.202 304.011 133.543C303.875 131.889 304.775 130.462 306.019 130.366C307.259 130.265 308.372 131.525 308.508 133.184Z" fill="#232323"/>
<path fill-rule="evenodd" clip-rule="evenodd" d="M282.234 133.88C282.365 135.539 281.47 136.961 280.225 137.062C278.986 137.158 277.868 135.899 277.737 134.244C277.6 132.585 278.501 131.159 279.745 131.063C280.984 130.962 282.102 132.221 282.234 133.88Z" fill="#232323"/>
<path fill-rule="evenodd" clip-rule="evenodd" d="M314.969 123.874C311.454 118.477 305.404 119.762 305.343 119.772L304.787 117.304C305.105 117.238 312.622 115.644 317.089 122.493L314.969 123.874Z" fill="#232323"/>
<path fill-rule="evenodd" clip-rule="evenodd" d="M275.196 127.026L272.9 125.974C276.309 118.533 283.973 119.014 284.296 119.029L284.119 121.553C283.882 121.538 277.867 121.219 275.196 127.026Z" fill="#232323"/>
<path fill-rule="evenodd" clip-rule="evenodd" d="M300.064 164.514C298.384 164.514 297.322 164.327 297.282 164.317L297.742 161.833C298.207 161.919 309.31 163.801 315.497 153.507L317.662 154.812C312.558 163.3 304.338 164.514 300.064 164.514Z" fill="#232323"/>
<path fill-rule="evenodd" clip-rule="evenodd" d="M280.618 152.987L287.052 131.054L289.475 131.762L284.007 150.412L292.864 150.296L292.9 152.825L280.618 152.987Z" fill="#D88344"/>
<path fill-rule="evenodd" clip-rule="evenodd" d="M116.75 288.004L113.442 289.481L83.7496 222.858L87.0527 221.38L116.75 288.004Z" fill="#232323"/>
<path fill-rule="evenodd" clip-rule="evenodd" d="M338.779 141.073C335.051 149.47 330.388 157.593 342.088 159.101C353.787 160.613 359.23 147.477 359.893 144.902C363.429 131.174 346.104 124.562 338.779 141.073Z" fill="#FFAD69"/>
<path fill-rule="evenodd" clip-rule="evenodd" d="M163.757 0.00201416H44.7295C40.5817 0.00201416 37.2179 3.36076 37.2179 7.5086V49.8925C37.2179 54.0403 40.5817 57.4041 44.7295 57.4041H51.9781L60.1524 68.3251C61.9684 70.7531 65.7773 70.0298 66.5816 67.106L69.2322 57.4041H163.757C167.905 57.4041 171.264 54.0403 171.264 49.8925V7.5086C171.264 3.36076 167.905 0.00201416 163.757 0.00201416Z" fill="#4D8DFF"/>
<mask id="mask2_29_2952" style="mask-type:luminance" maskUnits="userSpaceOnUse" x="0" y="0" width="527" height="580">
<path fill-rule="evenodd" clip-rule="evenodd" d="M0.649658 580H526.5V0H0.649658V580Z" fill="white"/>
</mask>
<g mask="url(#mask2_29_2952)">
<path fill-rule="evenodd" clip-rule="evenodd" d="M48.9113 13.6525H154.15V11.1233H48.9113V13.6525Z" fill="white"/>
<path fill-rule="evenodd" clip-rule="evenodd" d="M48.9113 25.6205H118.403V23.0914H48.9113V25.6205Z" fill="white"/>
<path fill-rule="evenodd" clip-rule="evenodd" d="M48.9113 37.5886H135.773V35.0594H48.9113V37.5886Z" fill="white"/>
<path fill-rule="evenodd" clip-rule="evenodd" d="M135.774 141.828H44.7286C40.5808 141.828 37.222 145.192 37.222 149.335V191.719C37.222 195.867 40.5808 199.231 44.7286 199.231H51.9772L60.1515 210.152C61.9675 212.58 65.7815 211.856 66.5807 208.932L69.2313 199.231H135.774C139.922 199.231 143.28 195.867 143.28 191.719V149.335C143.28 145.192 139.922 141.828 135.774 141.828Z" fill="#FF4E4A"/>
<path fill-rule="evenodd" clip-rule="evenodd" d="M48.9113 155.478H97.355V152.949H48.9113V155.478Z" fill="white"/>
<path fill-rule="evenodd" clip-rule="evenodd" d="M107.381 155.478H124.083V152.949H107.381V155.478Z" fill="white"/>
<path fill-rule="evenodd" clip-rule="evenodd" d="M48.9113 167.446H83.3232V164.917H48.9113V167.446Z" fill="white"/>
<path fill-rule="evenodd" clip-rule="evenodd" d="M48.9113 179.414H115.393V176.885H48.9113V179.414Z" fill="white"/>
<path fill-rule="evenodd" clip-rule="evenodd" d="M105.285 70.8755H216.134C220.277 70.8755 223.635 74.2393 223.635 78.3821V120.771C223.635 124.914 220.277 128.278 216.134 128.278H208.88L200.706 139.204C198.89 141.627 195.076 140.903 194.282 137.979L191.626 128.278H105.285C101.137 128.278 97.7786 124.914 97.7786 120.771V78.3821C97.7786 74.2393 101.137 70.8755 105.285 70.8755Z" fill="#FFC84D"/>
<path fill-rule="evenodd" clip-rule="evenodd" d="M167.514 84.525H211.947V81.9958H167.514V84.525Z" fill="white"/>
<path fill-rule="evenodd" clip-rule="evenodd" d="M115.398 96.498H211.947V93.9689H115.398V96.498Z" fill="white"/>
<path fill-rule="evenodd" clip-rule="evenodd" d="M164.51 108.466H211.947V105.937H164.51V108.466Z" fill="white"/>
<path fill-rule="evenodd" clip-rule="evenodd" d="M134.772 108.466H156.487V105.937H134.772V108.466Z" fill="white"/>
<path fill-rule="evenodd" clip-rule="evenodd" d="M297.512 280.051C278.174 280.051 262.438 295.787 262.438 315.125C262.438 334.468 278.174 350.205 297.512 350.205C316.855 350.205 332.592 334.468 332.592 315.125C332.592 295.787 316.855 280.051 297.512 280.051ZM297.512 352.734C276.778 352.734 259.909 335.865 259.909 315.125C259.909 294.391 276.778 277.522 297.512 277.522C318.252 277.522 335.121 294.391 335.121 315.125C335.121 335.865 318.252 352.734 297.512 352.734Z" fill="white"/>
</g>
</svg>
