<svg width="11" height="17" viewBox="0 0 11 17" fill="none" xmlns="http://www.w3.org/2000/svg">
<path d="M10.2435 9.59821L1.10066 0.455357C0.993513 0.339285 0.850656 0.285713 0.69887 0.285713C0.627441 0.285713 0.547084 0.303571 0.484584 0.330357C0.270299 0.419642 0.127441 0.624999 0.127441 0.857142V14.2857C0.127441 14.5179 0.270299 14.7232 0.484584 14.8125C0.547084 14.8393 0.627441 14.8571 0.69887 14.8571C0.850656 14.8571 0.993513 14.7946 1.10066 14.6875L3.88637 11.9018L5.59173 15.9375C5.71673 16.2232 6.04708 16.3661 6.34173 16.2411L7.92208 15.5714C8.2078 15.4464 8.35066 15.1161 8.22566 14.8214L6.43101 10.5714H9.84173C10.0739 10.5714 10.2792 10.4286 10.3685 10.2143C10.4578 10.0089 10.4132 9.75893 10.2435 9.59821Z" fill="white"/>
</svg>
