<svg width="135" height="28" viewBox="0 0 135 28" fill="none" xmlns="http://www.w3.org/2000/svg">
<path fill-rule="evenodd" clip-rule="evenodd" d="M55.4905 6.32404C54.6557 5.80132 53.6577 5.53996 52.4963 5.53996C51.2441 5.53996 50.1236 5.85088 49.1346 6.47274C48.1456 7.0946 47.3653 7.98682 46.7937 9.14943C46.2221 10.312 45.9363 11.6864 45.9363 13.2726C45.9363 14.8408 46.2221 16.2107 46.7937 17.3823C47.3653 18.5539 48.1456 19.4506 49.1346 20.0725C50.1236 20.6943 51.2441 21.0053 52.4963 21.0053C53.6577 21.0053 54.6557 20.7439 55.4905 20.2212C56.3252 19.6985 56.9331 18.9865 57.3142 18.0852V20.816H61.9688V0.808441H57.3142V8.45998C56.9331 7.55873 56.3252 6.84676 55.4905 6.32404ZM5.29706 20.816V14.1108H8.18238C9.68855 14.1108 10.9679 13.8449 12.0204 13.3132C13.0729 12.7815 13.8668 12.0515 14.4021 11.1232C14.9375 10.1949 15.2051 9.13595 15.2051 7.9463C15.2051 6.03566 14.6063 4.51708 13.4086 3.39052C12.2109 2.26397 10.4689 1.7007 8.18238 1.7007H0.642456V20.816H5.29706ZM10.4688 7.94629C10.4688 9.58655 9.53426 10.4067 7.66515 10.4067H5.29701V5.43182H7.66515C9.53426 5.43182 10.4688 6.26997 10.4688 7.94629ZM22.1462 8.56813C22.7269 7.64886 23.4754 6.91886 24.3918 6.37811C25.3082 5.83737 26.3017 5.567 27.3724 5.567V10.5148H26.0386C24.8046 10.5148 23.8474 10.7762 23.1669 11.2989C22.4864 11.8216 22.1462 12.7048 22.1462 13.9485V20.816H17.4916V5.72922H22.1462V8.56813ZM40.4787 6.47276C39.2901 5.8509 37.9428 5.53997 36.4366 5.53997C34.9304 5.53997 33.5785 5.8509 32.3808 6.47276C31.1831 7.09462 30.2441 7.99134 29.5636 9.16296C28.8831 10.3346 28.5428 11.7045 28.5428 13.2726C28.5428 14.8408 28.8831 16.2107 29.5636 17.3823C30.2441 18.5539 31.1831 19.4506 32.3808 20.0725C33.5785 20.6944 34.9304 21.0053 36.4366 21.0053C37.9428 21.0053 39.2901 20.6944 40.4787 20.0725C41.6674 19.4506 42.6019 18.5539 43.2824 17.3823C43.9629 16.2107 44.3031 14.8408 44.3031 13.2726C44.3031 11.7045 43.9629 10.3346 43.2824 9.16296C42.6019 7.99134 41.6674 7.09462 40.4787 6.47276ZM36.4366 9.54148C35.5474 9.54148 34.7989 9.86141 34.1909 10.5013C33.583 11.1412 33.2791 12.0649 33.2791 13.2726C33.2791 14.4803 33.583 15.3995 34.1909 16.0304C34.7989 16.6613 35.5474 16.9767 36.4366 16.9767C37.3258 16.9767 38.0698 16.6613 38.6686 16.0304C39.2675 15.3995 39.5669 14.4803 39.5669 13.2726C39.5669 12.0649 39.2675 11.1412 38.6686 10.5013C38.0698 9.86141 37.3258 9.54148 36.4366 9.54148ZM53.9935 9.59555C52.9954 9.59555 52.1924 9.91999 51.5845 10.5689C50.9766 11.2178 50.6727 12.119 50.6727 13.2726C50.6727 14.4262 50.9766 15.3274 51.5845 15.9763C52.1924 16.6252 52.9954 16.9497 53.9935 16.9497C54.9734 16.9497 55.7764 16.6162 56.4024 15.9493C57.0285 15.2824 57.3415 14.3902 57.3415 13.2726C57.3415 12.137 57.0285 11.2403 56.4024 10.5824C55.7764 9.9245 54.9734 9.59555 53.9935 9.59555ZM80.288 20.816V5.72925H75.6061V13.7323C75.6061 14.8318 75.334 15.679 74.7896 16.2738C74.2451 16.8686 73.5011 17.166 72.5575 17.166C71.6502 17.166 70.9289 16.8821 70.3935 16.3143C69.8582 15.7465 69.5905 14.949 69.5905 13.9215V5.72925H64.9632V14.4893C64.9632 16.5081 65.4758 18.0943 66.5011 19.2479C67.5264 20.4015 68.91 20.9783 70.6521 20.9783C71.7954 20.9783 72.798 20.7169 73.6599 20.1942C74.5219 19.6715 75.1706 18.9685 75.6061 18.0853V20.816H80.288ZM90.3592 5.53997C92.3191 5.53997 93.9613 6.07621 95.286 7.14869C96.6108 8.22117 97.4455 9.69469 97.7903 11.5693H92.8635C92.7183 10.9204 92.4189 10.4157 91.9652 10.0552C91.5116 9.69469 90.9399 9.51445 90.2504 9.51445C89.4338 9.51445 88.7623 9.83439 88.2361 10.4743C87.7098 11.1142 87.4467 12.0469 87.4467 13.2726C87.4467 14.4983 87.7098 15.4311 88.2361 16.071C88.7623 16.7109 89.4338 17.0308 90.2504 17.0308C90.9399 17.0308 91.5116 16.8506 91.9652 16.4901C92.4189 16.1296 92.7183 15.6249 92.8635 14.976H97.7903C97.4455 16.8506 96.6108 18.3241 95.286 19.3966C93.9613 20.469 92.3191 21.0053 90.3592 21.0053C88.8712 21.0053 87.5511 20.6944 86.3987 20.0725C85.2464 19.4506 84.3436 18.5539 83.6904 17.3823C83.0371 16.2107 82.7104 14.8408 82.7104 13.2726C82.7104 11.6864 83.0325 10.3121 83.6768 9.14945C84.321 7.98684 85.2237 7.09462 86.3851 6.47276C87.5465 5.8509 88.8712 5.53997 90.3592 5.53997ZM108.814 20.816V16.8415H107.345C106.764 16.8415 106.351 16.7244 106.106 16.49C105.861 16.2557 105.739 15.8412 105.739 15.2463V9.62258H108.787V5.72922H105.739V2.02512H101.084V5.72922H99.0424V9.62258H101.084V15.1652C101.084 17.184 101.578 18.6305 102.567 19.5047C103.556 20.3789 104.94 20.816 106.718 20.816H108.814ZM116.082 0.808441V20.816H111.428V0.808441H116.082ZM126.453 14.976L122.805 5.72925H117.606L123.976 20.2482L120.41 28.0079H125.527L135 5.72925H129.855L126.453 14.976Z" fill="#173A56"/>
</svg>
