<svg width="534" height="520" viewBox="0 0 534 520" fill="none" xmlns="http://www.w3.org/2000/svg">
<mask id="mask0_29_3095" style="mask-type:luminance" maskUnits="userSpaceOnUse" x="0" y="53" width="534" height="467">
<path fill-rule="evenodd" clip-rule="evenodd" d="M0.50061 53.9443H533.079V520H0.50061V53.9443Z" fill="white"/>
</mask>
<g mask="url(#mask0_29_3095)">
<path fill-rule="evenodd" clip-rule="evenodd" d="M500.181 308.177C498.531 310.827 496.886 313.432 495.131 316.027C479.782 339.08 460.733 361.224 439.64 381.577C438.685 382.522 437.685 383.477 436.69 384.422C433.685 387.272 430.586 390.127 427.486 392.872C422.141 397.776 416.636 402.521 411.037 407.071C408.087 409.57 405.042 412.025 402.037 414.42C367.145 442.023 329.847 466.172 293.095 484.365C281.701 490.07 270.301 495.165 259.052 499.564C200.351 522.818 145.71 528.267 108.012 505.214C96.008 497.914 85.7587 487.715 77.6093 474.271C76.3094 472.116 75.0095 469.966 73.7095 467.821C61.6653 447.668 50.1611 427.424 40.0618 407.071C37.662 402.321 35.4171 397.626 33.2173 392.872C-3.43027 314.127 -17.3843 234.432 34.5622 156.037C54.7608 125.545 87.9136 101.796 127.706 84.9922C139.06 80.1476 150.904 75.9429 163.209 72.2931C169.258 70.3932 175.353 68.7433 181.602 67.2484C189.457 65.2486 197.451 63.4987 205.551 61.9938C211.755 60.7989 217.95 59.7489 224.199 58.844C226.799 58.499 229.399 58.1491 231.999 57.7941C250.448 55.4492 269.146 54.1443 287.75 53.9993C290.195 53.9443 292.645 53.9443 295.05 53.9443C306.299 53.9993 317.443 54.4443 328.442 55.3492C331.392 55.5492 334.342 55.7992 337.292 56.1442C393.438 61.5988 444.935 77.6927 479.932 104.396C487.582 110.246 494.436 116.54 500.381 123.395C501.486 124.645 502.536 125.894 503.531 127.189C503.881 127.589 504.186 127.989 504.531 128.394C511.78 137.489 517.58 146.893 521.934 156.492C544.183 204.939 531.179 258.381 500.181 308.177Z" fill="#FDE6D6"/>
</g>
<path fill-rule="evenodd" clip-rule="evenodd" d="M387.014 454.608C373.525 468.747 363.921 488.966 378.43 500.945C394.634 514.319 428.057 511.214 445.335 485.981C456.38 469.862 462.224 444.379 449.99 430.085C439.516 417.845 403.563 437.259 387.014 454.608Z" fill="#E8E5EA"/>
<path fill-rule="evenodd" clip-rule="evenodd" d="M190.854 450.921C187.504 451.066 184.104 451.171 180.804 451.171C180.454 451.171 180.204 451.466 180.204 451.821C180.204 452.116 180.454 452.421 180.804 452.421C184.154 452.421 187.504 452.316 190.904 452.171C191.254 452.171 191.504 451.866 191.504 451.521C191.454 451.221 191.154 450.921 190.854 450.921ZM170.805 451.021C167.405 450.921 164.005 450.721 160.805 450.521C160.355 450.471 160.155 450.721 160.105 451.066C160.105 451.421 160.355 451.721 160.705 451.771C163.955 451.971 167.355 452.171 170.755 452.271C171.105 452.271 171.405 452.021 171.405 451.666C171.405 451.321 171.155 451.021 170.805 451.021ZM210.852 449.471C207.502 449.816 204.152 450.121 200.852 450.371C200.502 450.371 200.252 450.666 200.252 451.021C200.302 451.371 200.552 451.621 200.902 451.621H200.952C204.252 451.371 207.602 451.066 210.952 450.721C211.302 450.666 211.552 450.371 211.552 450.016C211.502 449.671 211.202 449.416 210.852 449.471ZM150.806 449.521C147.506 449.166 144.156 448.671 140.906 448.116C140.556 448.071 140.256 448.271 140.156 448.621C140.106 448.966 140.356 449.271 140.706 449.321C143.956 449.921 147.306 450.371 150.656 450.771H150.756C151.056 450.771 151.306 450.571 151.356 450.216C151.406 449.871 151.156 449.566 150.806 449.521ZM230.751 446.821C227.351 447.316 224.051 447.821 220.801 448.271C220.451 448.316 220.201 448.621 220.251 448.966C220.301 449.271 220.601 449.521 220.901 449.521H220.951C224.201 449.071 227.551 448.566 230.951 448.021C231.251 447.971 231.501 447.671 231.451 447.316C231.401 446.971 231.101 446.771 230.751 446.821ZM131.108 446.121C127.808 445.371 124.558 444.521 121.408 443.621C121.058 443.521 120.708 443.671 120.608 444.021C120.508 444.366 120.708 444.721 121.058 444.816C124.108 445.666 127.208 446.521 130.358 447.271C130.508 447.316 130.658 447.316 130.808 447.371H130.958C131.058 447.371 131.158 447.316 131.258 447.271L131.308 447.221C131.458 447.171 131.508 447.021 131.558 446.866C131.608 446.571 131.408 446.221 131.108 446.121ZM250.45 443.072C247.2 443.767 243.85 444.472 240.7 445.072H240.6C240.25 445.122 240.05 445.417 240.1 445.772C240.15 446.067 240.45 446.267 240.75 446.267H240.85C243.1 445.867 245.4 445.417 247.7 444.922C248.7 444.722 249.7 444.522 250.7 444.272C251.05 444.222 251.25 443.872 251.2 443.522C251.1 443.222 250.8 442.972 250.45 443.072ZM269.948 438.317C266.798 439.167 263.548 440.017 260.248 440.817C259.898 440.922 259.698 441.222 259.798 441.572C259.848 441.867 260.098 442.067 260.398 442.067C260.448 442.067 260.498 442.067 260.548 442.022C263.848 441.222 267.148 440.372 270.298 439.567C270.598 439.472 270.798 439.122 270.748 438.767C270.648 438.472 270.298 438.272 269.948 438.317ZM111.909 440.417C110.809 440.017 109.759 439.617 108.659 439.167C106.609 438.367 104.659 437.472 102.709 436.572C102.409 436.422 102.009 436.572 101.859 436.867C101.709 437.172 101.859 437.572 102.159 437.717C104.259 438.722 106.459 439.617 108.659 440.522C109.559 440.922 110.509 441.267 111.459 441.622H111.709C111.959 441.622 112.209 441.467 112.309 441.222C112.409 440.922 112.259 440.572 111.909 440.417ZM289.197 432.717C288.547 432.917 287.897 433.167 287.197 433.367C284.747 434.122 282.197 434.922 279.647 435.667C279.297 435.772 279.097 436.067 279.197 436.422C279.297 436.722 279.547 436.867 279.797 436.867H279.997C282.497 436.122 285.047 435.372 287.447 434.617C288.197 434.367 288.897 434.167 289.597 433.922C289.897 433.822 290.097 433.472 289.997 433.117C289.897 432.822 289.547 432.622 289.197 432.717ZM93.8101 431.973L93.4601 431.723C90.6601 430.123 87.9601 428.423 85.3601 426.623C85.1101 426.423 84.7101 426.523 84.5101 426.823C84.3101 427.068 84.4101 427.473 84.6601 427.673C87.2601 429.418 90.0101 431.173 92.8101 432.823L93.2101 433.073C93.3101 433.118 93.4101 433.118 93.5101 433.118C93.7601 433.118 93.9601 433.023 94.0601 432.823C94.2601 432.518 94.1101 432.118 93.8101 431.973ZM308.196 426.268C305.046 427.423 301.846 428.523 298.746 429.618C298.396 429.723 298.246 430.073 298.346 430.373C298.446 430.668 298.646 430.818 298.946 430.818C298.996 430.818 299.046 430.818 299.146 430.773C302.296 429.723 305.446 428.568 308.596 427.423C308.946 427.318 309.096 426.973 308.996 426.623C308.846 426.268 308.446 426.123 308.196 426.268ZM327.694 419.273C327.544 418.923 327.194 418.768 326.895 418.923C323.845 420.173 320.694 421.468 317.544 422.673C317.245 422.823 317.095 423.168 317.194 423.523C317.294 423.768 317.544 423.923 317.794 423.923C317.845 423.923 317.944 423.873 318.044 423.873C321.194 422.623 324.345 421.323 327.345 420.073C327.694 419.923 327.845 419.568 327.694 419.273ZM77.3611 420.668C76.2111 419.773 75.0611 418.823 74.0111 417.918C72.5611 416.668 71.2111 415.373 69.8611 414.123C69.6111 413.873 69.2111 413.873 68.9611 414.123C68.7111 414.368 68.7111 414.773 68.9611 415.018C70.5611 416.523 72.2111 418.023 73.9611 419.473C74.8111 420.218 75.6611 420.973 76.5611 421.668C76.6611 421.773 76.8111 421.823 76.9611 421.823C77.1611 421.823 77.3111 421.723 77.4611 421.573C77.6611 421.323 77.6111 420.923 77.3611 420.668ZM346.093 411.069C345.943 410.724 345.543 410.619 345.243 410.774C342.343 412.119 339.393 413.524 336.093 414.974C335.793 415.074 335.643 415.474 335.793 415.774C335.893 416.024 336.143 416.174 336.343 416.174C336.443 416.174 336.543 416.124 336.593 416.069C339.893 414.619 342.893 413.274 345.793 411.869C346.093 411.724 346.243 411.374 346.093 411.069ZM62.9621 406.87C60.7621 404.37 58.6621 401.725 56.7621 399.075C56.5621 398.77 56.1621 398.725 55.8621 398.925C55.6121 399.125 55.5621 399.525 55.7621 399.775C57.5121 402.275 59.4621 404.725 61.4621 407.07C61.6621 407.275 61.8121 407.52 62.0121 407.72C62.1121 407.825 62.3121 407.92 62.4621 407.92C62.6121 407.92 62.7621 407.875 62.9121 407.775C63.1121 407.575 63.1621 407.32 63.0621 407.07C63.0621 406.975 63.0121 406.92 62.9621 406.87ZM364.042 402.024C363.892 401.724 363.492 401.624 363.192 401.774C360.342 403.319 357.292 404.874 354.292 406.374C353.992 406.524 353.892 406.824 353.992 407.069C353.942 407.119 353.992 407.174 353.992 407.224C354.092 407.424 354.342 407.574 354.542 407.574C354.642 407.574 354.742 407.519 354.842 407.474C355.092 407.319 355.392 407.224 355.642 407.069C358.442 405.724 361.142 404.274 363.792 402.874C364.092 402.719 364.192 402.319 364.042 402.024ZM381.541 392.175C381.391 391.87 380.991 391.775 380.691 391.92C380.141 392.225 379.641 392.575 379.091 392.875C376.791 394.275 374.441 395.62 371.991 396.975C371.691 397.12 371.591 397.52 371.791 397.825C371.891 398.025 372.091 398.12 372.341 398.12C372.441 398.12 372.541 398.12 372.641 398.075C375.591 396.375 378.541 394.675 381.341 393.025C381.391 392.975 381.441 392.92 381.491 392.875C381.691 392.675 381.691 392.425 381.541 392.175ZM51.3627 390.671C49.6627 387.826 48.1127 384.821 46.7627 381.826C46.6127 381.526 46.2127 381.376 45.9127 381.526C45.6127 381.671 45.4627 382.026 45.6127 382.376C47.0127 385.376 48.5627 388.426 50.2627 391.326C50.3627 391.526 50.5627 391.626 50.8127 391.626C50.9127 391.626 51.0127 391.576 51.1127 391.526C51.4127 391.376 51.5127 390.976 51.3627 390.671ZM398.59 381.576C398.59 381.526 398.54 381.471 398.54 381.426C398.34 381.126 397.94 381.071 397.69 381.226C397.49 381.326 397.34 381.471 397.14 381.576C395.74 382.521 394.24 383.526 392.79 384.421C391.64 385.221 390.44 385.976 389.29 386.726C388.99 386.871 388.89 387.276 389.09 387.576C389.19 387.776 389.39 387.876 389.59 387.876C389.69 387.876 389.84 387.826 389.94 387.776C391.69 386.671 393.39 385.576 395.09 384.421C396.19 383.726 397.29 383.026 398.39 382.276C398.59 382.121 398.69 381.826 398.59 381.576ZM414.889 369.776C414.689 369.476 414.289 369.421 414.039 369.621C411.389 371.626 408.639 373.626 405.939 375.576C405.639 375.776 405.589 376.126 405.789 376.426C405.939 376.576 406.089 376.671 406.289 376.671C406.439 376.671 406.539 376.671 406.689 376.576C409.389 374.621 412.139 372.626 414.789 370.621C415.089 370.421 415.139 370.021 414.889 369.776ZM40.0633 363.027C39.9633 362.677 39.6133 362.477 39.2633 362.577C38.9633 362.677 38.7633 363.027 38.8133 363.322C39.7133 366.627 40.7133 369.877 41.8133 372.977C41.9133 373.277 42.1133 373.427 42.4133 373.427C42.4633 373.427 42.5133 373.427 42.6133 373.372C42.9133 373.277 43.1133 372.922 42.9633 372.577C41.8633 369.477 40.9133 366.272 40.0633 363.027ZM430.537 357.072C430.287 356.827 429.887 356.827 429.637 357.027C427.187 359.127 424.637 361.272 421.937 363.477C421.687 363.677 421.637 364.077 421.837 364.327C421.987 364.477 422.137 364.572 422.337 364.572C422.487 364.572 422.587 364.527 422.737 364.422C425.437 362.277 428.037 360.077 430.437 357.977C430.737 357.722 430.737 357.377 430.537 357.072ZM36.5135 343.323C36.5135 343.028 36.2135 342.723 35.8635 342.778C35.5135 342.828 35.2635 343.123 35.3135 343.478C35.6635 346.873 36.1135 350.223 36.6635 353.478C36.7135 353.773 37.0135 353.973 37.3135 353.973H37.4135C37.7635 353.928 37.9635 353.628 37.9135 353.278C37.3635 350.023 36.8635 346.728 36.5135 343.323ZM445.236 343.428C444.986 343.173 444.586 343.173 444.336 343.428C442.036 345.728 439.586 348.078 437.136 350.378C436.886 350.578 436.836 350.978 437.086 351.228C437.186 351.378 437.386 351.428 437.536 351.428C437.686 351.428 437.836 351.378 437.986 351.273C440.436 348.973 442.886 346.628 445.236 344.278C445.486 344.028 445.486 343.628 445.236 343.428ZM458.785 328.574C458.535 328.324 458.135 328.374 457.885 328.629C455.835 331.129 453.585 333.679 451.285 336.179C451.035 336.429 451.085 336.829 451.335 337.074C451.435 337.179 451.585 337.229 451.735 337.229C451.935 337.229 452.085 337.124 452.185 337.029C454.535 334.479 456.785 331.924 458.885 329.424C459.085 329.174 459.035 328.774 458.785 328.574ZM35.7637 327.83C35.7637 326.38 35.7637 324.88 35.8137 323.375C35.8137 323.03 35.5637 322.725 35.2137 322.725C34.8637 322.725 34.5637 322.98 34.5637 323.325C34.5137 324.825 34.5137 326.33 34.5137 327.83C34.5137 329.73 34.5637 331.58 34.6137 333.43C34.6137 333.73 34.9137 334.03 35.2137 334.03H35.2637C35.6137 333.975 35.8637 333.73 35.8637 333.375C35.8137 331.53 35.7637 329.68 35.7637 327.83ZM470.885 312.58C470.585 312.38 470.235 312.43 470.035 312.725C468.185 315.425 466.185 318.175 464.185 320.825C463.935 321.13 464.035 321.53 464.285 321.73C464.385 321.78 464.535 321.83 464.685 321.83C464.835 321.83 465.035 321.78 465.185 321.58C467.185 318.93 469.185 316.18 471.035 313.43C471.235 313.125 471.185 312.725 470.885 312.58ZM36.9136 302.726C36.5136 302.631 36.2636 302.881 36.2136 303.231C35.7636 306.631 35.4136 309.981 35.1136 313.281C35.1136 313.631 35.3636 313.931 35.7136 313.931H35.7636C36.0636 313.931 36.3636 313.681 36.3636 313.376C36.6636 310.081 37.0136 306.731 37.4636 303.431C37.5136 303.081 37.2636 302.726 36.9136 302.726ZM481.134 295.281C480.834 295.181 480.484 295.281 480.284 295.581C478.834 298.431 477.184 301.381 475.434 304.281C475.234 304.576 475.334 304.981 475.634 305.181C475.734 305.226 475.834 305.226 475.934 305.226C476.184 305.226 476.384 305.131 476.484 304.931C478.284 301.981 479.934 299.031 481.434 296.131C481.584 295.826 481.434 295.426 481.134 295.281ZM40.5134 282.927C40.1634 282.882 39.8634 283.082 39.7634 283.432C39.0634 286.732 38.3634 290.027 37.7634 293.282C37.7134 293.632 37.9634 293.932 38.2634 294.032H38.4134C38.7134 294.032 38.9634 293.832 39.0134 293.532C39.6134 290.282 40.2634 286.982 41.0134 283.682C41.0634 283.327 40.8634 283.032 40.5134 282.927ZM489.033 276.833C488.683 276.733 488.333 276.878 488.233 277.233C487.183 280.283 485.933 283.433 484.583 286.533C484.433 286.878 484.583 287.233 484.933 287.383C484.983 287.383 485.083 287.433 485.183 287.433C485.383 287.433 485.633 287.283 485.733 287.033C487.083 283.883 488.333 280.733 489.383 277.633C489.533 277.328 489.333 276.983 489.033 276.833ZM45.713 263.534C45.413 263.434 45.063 263.634 44.963 263.979C43.963 267.184 43.013 270.428 42.163 273.634C42.113 273.979 42.313 274.333 42.613 274.379C42.663 274.428 42.713 274.428 42.813 274.428C43.063 274.428 43.313 274.234 43.413 273.979C44.213 270.784 45.163 267.529 46.163 264.333C46.263 263.979 46.063 263.634 45.713 263.534ZM494.333 257.484C493.983 257.384 493.683 257.634 493.583 257.929C492.883 261.134 492.033 264.379 491.133 267.684C491.083 267.984 491.233 268.329 491.583 268.434C491.633 268.434 491.683 268.484 491.733 268.484C492.033 268.484 492.283 268.284 492.333 267.984C493.233 264.734 494.083 261.434 494.833 258.234C494.883 257.884 494.683 257.529 494.333 257.484ZM52.2626 244.535C51.9126 244.43 51.5626 244.58 51.4626 244.885C50.2626 248.035 49.1126 251.235 48.0626 254.38C47.9126 254.685 48.1126 255.03 48.4126 255.185H48.6126C48.9126 255.185 49.1126 255.03 49.2126 254.785C50.3126 251.635 51.4626 248.435 52.6126 245.335C52.7126 245.03 52.5626 244.63 52.2626 244.535ZM497.932 237.685C497.632 237.635 497.282 237.885 497.232 238.235C496.782 241.535 496.232 244.83 495.632 248.13C495.582 248.485 495.782 248.78 496.132 248.885H496.232C496.532 248.885 496.782 248.685 496.882 248.38C497.482 245.03 498.032 241.68 498.482 238.435C498.482 238.085 498.282 237.73 497.932 237.685ZM59.8621 225.936C59.5621 225.786 59.2121 225.936 59.0621 226.281C57.7121 229.336 56.3621 232.436 55.1121 235.536C55.0121 235.831 55.1621 236.236 55.4621 236.336C55.5621 236.386 55.6121 236.386 55.7121 236.386C55.9621 236.386 56.1621 236.236 56.2621 235.986C57.5121 232.931 58.8621 229.831 60.2121 226.786C60.3621 226.436 60.2121 226.081 59.8621 225.936ZM499.682 217.687C499.382 217.732 499.082 217.932 499.032 218.287C498.882 221.637 498.682 224.987 498.382 228.287C498.332 228.637 498.582 228.937 498.932 228.982H498.982C499.282 228.982 499.582 228.737 499.582 228.382C499.932 225.087 500.132 221.737 500.282 218.332C500.332 218.037 500.032 217.732 499.682 217.687ZM68.5116 207.787C68.2116 207.637 67.8116 207.732 67.6616 208.037C66.1616 211.037 64.6616 214.087 63.2616 217.082C63.1116 217.437 63.2616 217.787 63.5616 217.932C63.6616 217.987 63.7116 217.987 63.8116 217.987C64.0616 217.987 64.2616 217.887 64.3616 217.637C65.8116 214.632 67.3116 211.587 68.8116 208.637C68.9616 208.287 68.8116 207.932 68.5116 207.787ZM500.282 198.233C500.282 197.888 499.982 197.638 499.632 197.638C499.282 197.638 499.032 197.938 499.032 198.288C499.182 201.588 499.282 204.938 499.282 208.288C499.282 208.638 499.582 208.938 499.882 208.938C500.232 208.938 500.532 208.638 500.532 208.288C500.532 204.938 500.432 201.538 500.282 198.233ZM78.011 190.039C77.711 189.889 77.311 189.989 77.161 190.289C75.461 193.234 73.861 196.239 72.311 199.139C72.161 199.439 72.261 199.789 72.561 199.939C72.661 199.989 72.761 200.039 72.861 200.039C73.061 200.039 73.311 199.939 73.411 199.689C74.961 196.839 76.561 193.839 78.261 190.889C78.411 190.589 78.311 190.239 78.011 190.039ZM498.382 178.139C498.332 177.789 498.032 177.539 497.682 177.639C497.332 177.689 497.132 177.989 497.182 178.334C497.632 181.639 498.032 184.989 498.332 188.289C498.382 188.639 498.632 188.839 498.982 188.839H499.032C499.382 188.839 499.632 188.539 499.582 188.189C499.282 184.839 498.882 181.489 498.382 178.139ZM88.2603 172.79C88.0103 172.59 87.6103 172.69 87.4103 172.99C85.6603 175.835 83.9103 178.69 82.2103 181.59C82.0103 181.89 82.1103 182.24 82.4103 182.44C82.5103 182.49 82.6103 182.54 82.7103 182.54C82.9603 182.54 83.1603 182.44 83.2603 182.24C84.9603 179.34 86.7103 176.49 88.4603 173.64C88.6603 173.335 88.5603 172.99 88.2603 172.79ZM496.683 167.841H496.633C496.083 164.691 495.333 161.541 494.583 158.336C494.533 157.991 494.183 157.791 493.833 157.891C493.533 157.941 493.283 158.291 493.383 158.641C494.133 161.691 494.783 164.741 495.383 167.791C495.433 167.991 495.483 168.236 495.533 168.441C495.583 168.741 495.833 168.941 496.133 168.941H496.233C496.583 168.841 496.783 168.541 496.733 168.191C496.733 168.091 496.683 167.941 496.683 167.841ZM99.5096 155.641C99.2596 155.441 98.8596 155.491 98.6596 155.791L98.4096 156.141C96.5596 158.891 94.6596 161.691 92.8596 164.486C92.6596 164.791 92.7096 165.191 93.0096 165.391C93.1096 165.441 93.2596 165.491 93.3596 165.491C93.5596 165.491 93.7596 165.391 93.8596 165.191C95.7096 162.391 97.5596 159.586 99.4596 156.841L99.7096 156.491C99.8596 156.241 99.8096 155.836 99.5096 155.641ZM491.283 146.342C490.533 143.842 489.733 141.392 488.933 138.992C488.833 138.642 488.433 138.492 488.133 138.592C487.783 138.742 487.633 139.092 487.733 139.392C488.683 142.142 489.583 144.942 490.433 147.792C490.533 148.192 490.683 148.542 490.783 148.942C490.883 149.242 491.133 149.392 491.383 149.392H491.583C491.883 149.292 492.083 148.942 491.983 148.592C491.783 147.842 491.533 147.087 491.283 146.342ZM111.059 139.192C110.759 138.992 110.359 139.042 110.159 139.342C108.259 142.042 106.309 144.742 104.359 147.542C104.159 147.792 104.259 148.192 104.509 148.392C104.659 148.492 104.759 148.492 104.909 148.492C105.059 148.492 105.259 148.442 105.409 148.237C107.309 145.492 109.259 142.742 111.209 140.042C111.409 139.742 111.309 139.392 111.059 139.192ZM122.958 122.993C122.658 122.793 122.308 122.843 122.058 123.093C120.058 125.738 118.058 128.443 116.058 131.193C115.858 131.443 115.958 131.843 116.208 132.043C116.308 132.143 116.458 132.193 116.558 132.193C116.758 132.193 116.958 132.088 117.108 131.893C119.058 129.193 121.058 126.493 123.058 123.843C123.258 123.593 123.208 123.193 122.958 122.993ZM485.383 129.543C485.083 128.793 484.733 127.993 484.383 127.193C484.233 126.793 484.033 126.343 483.833 125.893C483.083 124.043 482.233 122.143 481.383 120.293C481.233 119.993 480.883 119.843 480.533 119.993C480.233 120.143 480.083 120.493 480.233 120.793C480.833 122.088 481.433 123.393 481.983 124.693C482.383 125.543 482.733 126.393 483.033 127.193C483.433 128.043 483.783 128.843 484.083 129.693C484.133 129.793 484.183 129.893 484.233 129.993C484.333 130.243 484.533 130.393 484.783 130.393C484.883 130.393 484.933 130.393 485.033 130.343C485.283 130.243 485.483 129.993 485.433 129.693C485.433 129.643 485.433 129.588 485.383 129.543ZM135.307 107.089C135.007 106.894 134.657 106.944 134.407 107.194C132.357 109.694 130.407 112.294 128.407 114.844C128.357 114.944 128.257 114.994 128.207 115.094C127.957 115.394 128.007 115.794 128.307 115.994C128.407 116.094 128.557 116.144 128.657 116.144C128.807 116.144 128.957 116.094 129.057 115.994C129.107 115.944 129.107 115.944 129.157 115.894C131.257 113.194 133.307 110.594 135.407 107.994C135.607 107.744 135.557 107.344 135.307 107.089ZM476.984 111.244C476.334 110.044 475.734 108.894 475.084 107.744C474.134 105.944 473.134 104.194 472.084 102.444C471.934 102.144 471.534 102.044 471.234 102.194C470.934 102.394 470.834 102.744 471.034 103.044C472.084 104.844 473.084 106.694 474.134 108.594C474.684 109.644 475.284 110.739 475.834 111.844C475.984 112.044 476.184 112.144 476.384 112.144C476.484 112.144 476.584 112.144 476.684 112.089C476.984 111.944 477.134 111.544 476.984 111.244ZM148.156 91.6452C147.856 91.4452 147.506 91.4952 147.256 91.7452C145.106 94.2452 142.906 96.7952 140.756 99.3952C140.556 99.6952 140.556 100.095 140.856 100.295C140.956 100.395 141.106 100.445 141.256 100.445C141.406 100.445 141.606 100.345 141.706 100.195C143.856 97.5952 146.056 95.0452 148.206 92.5452C148.406 92.2952 148.406 91.8952 148.156 91.6452ZM466.785 93.8456C464.985 91.0456 463.085 88.2956 461.135 85.5456C460.935 85.2456 460.535 85.1956 460.235 85.3956C459.985 85.5956 459.885 85.9956 460.085 86.2956C462.035 88.9956 463.985 91.7456 465.785 94.5456C465.885 94.6956 466.085 94.7956 466.285 94.7956C466.385 94.7956 466.535 94.7956 466.635 94.6956C466.935 94.5456 466.985 94.1456 466.785 93.8456ZM161.555 76.6961C161.305 76.4961 160.905 76.4961 160.705 76.7461C158.405 79.1461 156.155 81.6461 153.905 84.1461C153.655 84.4461 153.705 84.7961 153.955 85.0461C154.055 85.1461 154.205 85.1961 154.355 85.1961C154.505 85.1961 154.705 85.1461 154.805 84.9961C157.055 82.4961 159.355 79.9961 161.605 77.5961C161.855 77.3461 161.805 76.9461 161.555 76.6961ZM455.036 77.5466C452.936 74.8966 450.736 72.2966 448.536 69.7966C448.336 69.5466 447.936 69.5466 447.686 69.7466C447.386 69.9966 447.386 70.3966 447.636 70.6466C449.786 73.0966 451.986 75.6966 454.036 78.2966C454.186 78.4466 454.336 78.5466 454.536 78.5466C454.686 78.5466 454.786 78.4966 454.936 78.3966C455.186 78.1966 455.236 77.7966 455.036 77.5466ZM175.655 62.3972C175.405 62.1472 175.055 62.1472 174.805 62.3972C172.455 64.6472 170.055 67.0472 167.655 69.4922C167.405 69.7472 167.405 70.1472 167.655 70.3472C167.755 70.4972 167.905 70.5472 168.105 70.5472C168.255 70.5472 168.405 70.4972 168.555 70.3472C170.905 67.9472 173.305 65.5472 175.655 63.2972C175.905 63.0472 175.905 62.6472 175.655 62.3972ZM441.737 62.4476C439.387 60.0476 436.987 57.6476 434.537 55.3976C434.287 55.1476 433.887 55.1476 433.637 55.3976C433.437 55.6476 433.437 56.0476 433.687 56.2976C436.137 58.5476 438.537 60.9476 440.837 63.2976C440.937 63.3976 441.087 63.4976 441.287 63.4976C441.437 63.4976 441.587 63.4476 441.687 63.2976C441.937 63.0476 441.937 62.6476 441.737 62.4476ZM190.554 48.8981C190.304 48.6481 189.904 48.5981 189.654 48.8481C187.854 50.3981 186.054 51.9481 184.304 53.5481C183.854 53.8981 183.454 54.2981 183.054 54.6981C182.754 54.9481 182.404 55.1981 182.104 55.4981C181.854 55.7431 181.854 56.1481 182.054 56.3981C182.204 56.4981 182.354 56.5981 182.554 56.5981C182.704 56.5981 182.854 56.5481 182.954 56.4481C183.504 55.9481 184.054 55.4481 184.604 54.9481L186.404 53.2981C187.754 52.0931 189.104 50.9481 190.454 49.7981C190.704 49.5481 190.754 49.1481 190.554 48.8981ZM427.038 48.6985C424.488 46.4985 421.838 44.3985 419.238 42.3485C418.938 42.1485 418.538 42.1985 418.338 42.4485C418.138 42.7485 418.188 43.1485 418.438 43.3435C421.088 45.3485 423.688 47.4985 426.238 49.6485C426.338 49.7485 426.488 49.7985 426.638 49.7985C426.788 49.7985 426.988 49.6985 427.088 49.5485C427.338 49.2985 427.288 48.8985 427.038 48.6985ZM206.253 36.3989C206.053 36.1489 205.653 36.0489 205.403 36.2989C202.753 38.1989 200.103 40.2989 197.403 42.3989C197.153 42.6489 197.103 42.9989 197.303 43.2989C197.453 43.4489 197.603 43.5489 197.803 43.5489C197.953 43.5489 198.053 43.4989 198.203 43.3989C200.853 41.2489 203.503 39.1989 206.153 37.2989C206.403 37.0939 206.453 36.6989 206.253 36.3989ZM411.089 36.3993C408.339 34.4493 405.539 32.5993 402.689 30.7993C402.439 30.6493 402.039 30.6993 401.839 30.9993C401.639 31.2993 401.739 31.6993 402.039 31.8493C404.839 33.6493 407.639 35.4993 410.389 37.3993C410.489 37.4993 410.639 37.4993 410.739 37.4993C410.939 37.4993 411.139 37.4493 411.239 37.2493C411.439 36.9493 411.389 36.5993 411.089 36.3993ZM222.951 25.1997C222.751 24.9497 222.351 24.8497 222.101 24.9997C219.251 26.7497 216.401 28.5497 213.601 30.4497C213.301 30.6497 213.251 31.0497 213.451 31.3497C213.551 31.4997 213.751 31.5997 213.951 31.5997C214.101 31.5997 214.201 31.5497 214.301 31.4997C217.101 29.5947 219.901 27.7997 222.751 26.0997C223.051 25.8997 223.101 25.4997 222.951 25.1997ZM394.09 25.65C391.14 24 388.14 22.35 385.19 20.845C384.89 20.7 384.49 20.845 384.34 21.15C384.19 21.45 384.34 21.8 384.64 21.995C387.59 23.5 390.54 25.05 393.44 26.7C393.54 26.8 393.64 26.8 393.74 26.8C393.99 26.8 394.19 26.7 394.29 26.5C394.49 26.2 394.39 25.8 394.09 25.65ZM240.6 15.7003C240.45 15.3503 240.1 15.2503 239.75 15.4003C236.8 16.8003 233.75 18.3453 230.8 19.9503C230.5 20.1503 230.4 20.5003 230.55 20.8003C230.65 21.0503 230.9 21.1503 231.1 21.1503C231.2 21.1503 231.3 21.1003 231.4 21.0503C234.35 19.4503 237.35 17.9503 240.3 16.5003C240.6 16.3503 240.75 16.0003 240.6 15.7003ZM376.091 16.5005C373.041 15.1505 369.941 13.8005 366.841 12.5505C366.541 12.4505 366.141 12.6005 366.041 12.9005C365.891 13.2455 366.041 13.6005 366.391 13.7505C369.491 14.9505 372.591 16.3005 375.591 17.6505C375.691 17.7005 375.741 17.7005 375.841 17.7005C376.091 17.7005 376.341 17.5505 376.441 17.3505C376.591 16.9955 376.441 16.6505 376.091 16.5005ZM258.449 7.80079C255.299 8.85079 252.099 10.0508 248.999 11.3008C248.649 11.4508 248.499 11.8008 248.649 12.0958C248.749 12.3508 248.999 12.5008 249.199 12.5008C249.299 12.5008 249.399 12.5008 249.449 12.4508C252.549 11.2008 255.699 10.0008 258.849 8.95079C259.149 8.85079 259.349 8.50079 259.199 8.20079C259.099 7.85079 258.749 7.70079 258.449 7.80079ZM357.392 9.05091C354.192 7.95091 350.992 6.95091 347.792 6.05091C347.442 5.95091 347.092 6.15091 346.992 6.50091C346.892 6.80091 347.092 7.15091 347.442 7.25091C350.592 8.15091 353.842 9.15091 356.992 10.2509H357.192C357.442 10.2509 357.692 10.1009 357.792 9.85091C357.892 9.49591 357.742 9.15091 357.392 9.05091ZM277.898 2.60121C274.598 3.24621 271.298 4.00121 268.098 4.90121C267.748 4.95121 267.548 5.30121 267.648 5.65121C267.698 5.90121 267.948 6.10121 268.248 6.10121H268.398C271.598 5.25121 274.898 4.49621 278.148 3.85121C278.448 3.80121 278.698 3.45121 278.648 3.10121C278.548 2.80121 278.248 2.55121 277.898 2.60121ZM337.994 3.60123C334.694 2.90123 331.344 2.25123 328.094 1.75123C327.744 1.70123 327.394 1.95123 327.344 2.25123C327.294 2.60123 327.544 2.95123 327.894 3.00123C331.144 3.50123 334.444 4.10123 337.744 4.80123C337.794 4.85123 337.844 4.85123 337.844 4.85123C338.144 4.85123 338.394 4.65123 338.494 4.35123C338.544 4.00123 338.344 3.70123 337.994 3.60123ZM297.946 0.151394H297.896C294.546 0.351394 291.146 0.651394 287.846 1.05139C287.496 1.10139 287.246 1.40139 287.296 1.75139C287.346 2.05139 287.596 2.30139 287.946 2.30139H287.996C291.296 1.90139 294.646 1.60139 297.996 1.40139C298.296 1.40139 298.596 1.10139 298.546 0.746394C298.546 0.451394 298.246 0.151394 297.946 0.151394ZM318.045 0.551465C314.745 0.251465 311.345 0.0514648 307.995 0.00146484C307.645 0.00146484 307.345 0.251465 307.345 0.601465C307.345 0.951465 307.595 1.25146 307.945 1.25146C311.295 1.30146 314.645 1.50146 317.945 1.80146H317.995C318.345 1.80146 318.595 1.55146 318.645 1.20146C318.645 0.846465 318.395 0.551465 318.045 0.551465Z" fill="#D8D5DB"/>
<path fill-rule="evenodd" clip-rule="evenodd" d="M497.784 135.042L491.284 146.341L490.434 147.791L481.03 164.04L478.985 167.64L418.689 272.033L408.69 289.332L398.69 272.033L362.943 210.137L357.443 200.638L345.189 179.389L316.496 129.692H500.883L497.784 135.042ZM312.196 127.193L345.189 184.339L354.588 200.638L360.093 210.137L395.835 272.033L408.69 294.331L421.589 272.033L481.23 168.69L483.33 165.09L499.633 136.892L504.133 129.042L504.533 128.392L505.233 127.193H312.196Z" fill="white"/>
<path fill-rule="evenodd" clip-rule="evenodd" d="M343.292 382.073C343.442 382.623 343.192 383.428 342.642 384.423C341.392 386.773 338.397 390.123 335.247 392.872C334.592 393.427 333.943 393.972 333.293 394.422C331.393 395.972 329.543 397.177 328.093 397.622C322.993 399.322 300.945 396.422 295.595 393.522C295.25 393.322 294.995 393.122 294.745 392.872C292.55 393.022 289.296 393.072 285.346 392.872C283.546 392.777 281.596 392.622 279.496 392.322C274.547 391.773 268.897 390.623 262.797 388.673C259.798 387.778 256.648 386.623 253.448 385.223C250.448 383.873 247.348 382.323 244.249 380.523C243.499 380.123 242.949 379.623 242.299 379.228C242.899 383.828 243.499 388.373 244.149 392.872C244.349 394.122 244.549 395.372 244.699 396.572C245.249 400.122 245.799 403.627 246.398 407.072C248.748 420.621 251.448 433.37 254.698 444.769C254.998 445.969 255.348 447.174 255.698 448.319C254.648 448.469 253.598 448.624 252.598 448.769C252.848 449.919 253.048 451.124 253.248 452.318C255.748 465.818 257.648 482.466 259.048 499.565C200.352 522.814 145.705 528.263 108.008 505.215C96.0086 497.915 85.7593 487.716 77.6098 474.267C76.3099 472.117 75.01 469.967 73.7101 467.817C73.9601 460.768 74.2601 454.818 74.51 450.769C73.5601 450.669 73.0601 450.669 73.0601 450.669C73.0601 442.519 73.4101 431.82 73.9601 419.471C74.0101 418.971 74.0101 418.471 74.0101 417.921C74.2101 414.421 74.4101 410.821 74.66 407.072C74.86 402.472 75.16 397.777 75.46 392.872C75.91 385.773 76.4099 378.373 76.9599 370.874C64.7607 367.624 54.5614 364.124 48.8118 360.625C41.3123 356.075 38.4625 349.725 38.6625 343.476C38.5625 342.226 38.5625 340.876 38.8625 339.476C41.7123 330.027 51.5116 301.879 62.6108 273.93L50.3117 269.731C50.3117 269.731 86.2593 205.685 107.358 191.586C107.458 191.536 107.508 191.486 107.608 191.436C115.057 184.536 125.807 180.087 141.906 178.287C142.005 164.938 140.956 142.389 139.856 125.14C134.606 123.941 131.056 119.591 129.056 115.991C128.806 115.591 128.556 115.191 128.406 114.841C127.606 113.291 127.157 111.991 126.957 111.341C125.857 106.942 126.907 103.292 129.056 100.942C128.606 97.2924 127.956 91.2928 127.706 84.9932C127.206 73.394 127.856 60.6948 133.106 59.5449C133.056 59.3949 132.956 59.2949 132.906 59.1949C131.556 55.0452 134.006 50.4455 134.106 50.2955L136.306 51.4455C136.306 51.4955 134.306 55.2952 135.256 58.395C139.456 53.7453 153.605 52.2454 168.454 53.0953C169.304 53.0953 170.204 53.1953 171.054 53.2453C174.103 53.4953 177.153 53.7953 180.153 54.2453C181.153 54.3453 182.103 54.4952 183.053 54.6952C183.553 54.7452 184.103 54.8452 184.603 54.9452C187.852 55.4952 190.952 56.1951 193.802 56.9951C198.702 58.345 202.801 60.0449 205.551 61.9947C206.451 62.5947 207.151 63.2447 207.751 63.8946C210.251 66.7944 210.651 68.8443 209.551 70.1942C208.901 70.9441 207.851 71.4941 206.451 71.8941C207.051 76.0938 207.301 79.7435 207.401 83.0933C207.701 83.8933 208.001 84.7432 208.301 85.5932C208.551 86.3431 208.801 87.1431 209.051 87.943C209.101 87.993 209.151 87.993 209.201 88.043C209.501 88.293 209.801 88.493 210.101 88.7429C211.201 89.7429 212.201 90.9928 212.951 92.6427L210.701 93.6926C210.651 93.5926 210.601 93.5426 210.551 93.4426C211.151 95.9925 211.701 98.6423 212.101 101.442C212.701 105.592 213.351 109.742 214.001 113.791C214.201 115.341 214.401 116.891 214.601 118.391C215.051 121.491 215.451 124.541 215.701 127.44C215.801 128.34 215.901 129.19 215.901 130.04C216.95 143.239 215.701 154.189 207.801 159.688C206.301 160.788 204.501 161.688 202.451 162.288C199.852 163.138 196.752 163.588 193.152 163.638C193.252 167.138 193.452 170.537 193.752 173.737C193.902 174.987 194.052 176.237 194.252 177.387C194.402 178.587 194.602 179.787 194.852 180.887C208.201 184.087 218.25 189.486 224.6 196.836C224.9 197.136 225.25 197.436 225.55 197.786C229.1 201.235 232.549 206.54 235.799 212.885C239.899 220.834 243.749 230.488 247.148 240.133C247.398 240.883 247.648 241.683 247.948 242.433C248.198 243.283 248.498 244.082 248.748 244.932C250.148 249.082 251.448 253.232 252.648 257.187C253.548 260.131 254.348 262.986 255.148 265.681C258.998 279.235 261.247 289.234 261.247 289.234L255.148 290.679L252.648 291.279L250.848 291.734C251.448 294.129 252.048 296.479 252.648 298.879C252.698 299.129 252.798 299.429 252.848 299.684C253.648 302.784 254.398 305.933 255.148 308.978C258.998 324.627 262.247 339.126 263.697 348.725C267.997 352.275 271.147 357.825 275.796 362.979C280.496 368.174 286.846 372.874 297.595 374.724C297.645 374.724 297.645 374.774 297.695 374.774C301.9 371.474 309.694 367.579 314.444 366.129C315.094 365.974 315.649 365.824 316.144 365.724C316.544 365.624 316.899 365.574 317.194 365.574C319.199 365.174 319.494 365.324 320.693 366.074C321.143 366.424 321.743 366.874 322.693 367.424C326.593 369.724 330.693 371.874 334.243 373.974C338.642 376.529 342.092 378.973 343.092 381.573C343.192 381.728 343.242 381.923 343.292 382.073Z" fill="#D1CDD3"/>
<path fill-rule="evenodd" clip-rule="evenodd" d="M358.144 367.402C354.58 365.267 355.619 364.997 351.59 365.737C347.24 366.542 337.881 371.032 333.146 374.771C333.096 374.766 333.061 374.741 333.011 374.731C311.572 371.057 307.803 355.893 299.133 348.713C294.329 317.235 270.12 231.571 270.12 231.571L233.643 245.135C238.957 281.228 260.346 349.873 265.896 365.362C266.805 367.237 267.98 368.727 269.295 369.937C271.115 373.781 274.385 377.491 279.67 380.546C301.538 393.19 322.237 393.365 330.156 392.86C330.411 393.115 330.701 393.335 331.031 393.52C336.396 396.45 358.404 399.32 363.544 397.635C368.769 395.92 379.468 385.091 378.698 382.091C377.448 377.191 367.079 372.751 358.144 367.402Z" fill="#FFAD69"/>
<path fill-rule="evenodd" clip-rule="evenodd" d="M237.389 208.433C227.089 231.581 230.874 304.931 230.874 304.931L296.695 289.242C296.695 289.242 264.547 147.367 237.389 208.433Z" fill="#377ADB"/>
<path fill-rule="evenodd" clip-rule="evenodd" d="M293.095 484.366C281.701 490.071 270.296 495.166 259.047 499.565C200.351 522.814 145.71 528.263 108.007 505.215C108.557 483.566 109.307 461.018 109.907 450.769C110.007 449.569 110.107 448.519 110.157 447.669L130.356 447.269H131.256L131.306 447.219L240.598 445.074H240.703L247.698 444.919L254.697 444.769L286.995 444.119C287.35 445.619 287.695 447.219 287.995 448.824C290.095 459.023 291.745 471.267 293.095 484.366Z" fill="#232323"/>
<path fill-rule="evenodd" clip-rule="evenodd" d="M189.037 177.417C149.77 178.712 136.496 191.966 129.726 214.889C122.037 240.918 108.498 398.127 108.498 450.659C108.498 450.659 226.015 458.988 291.115 448.314C270.702 379.363 268.497 255.392 268.087 218.454C267.782 190.746 238.814 175.772 189.037 177.417Z" fill="#4D8DFF"/>
<mask id="mask1_29_3095" style="mask-type:luminance" maskUnits="userSpaceOnUse" x="0" y="0" width="534" height="520">
<path fill-rule="evenodd" clip-rule="evenodd" d="M0.5 520H533.079V0H0.5V520Z" fill="white"/>
</mask>
<g mask="url(#mask1_29_3095)">
<path fill-rule="evenodd" clip-rule="evenodd" d="M195.452 314.279H252.648V244.934H195.452V314.279ZM192.952 316.779H255.148V242.434H192.952V316.779Z" fill="white"/>
<path fill-rule="evenodd" clip-rule="evenodd" d="M223.629 113.131C227.494 110.217 247.673 112.861 241.863 71.7792C239.743 56.7902 225.669 66.7945 215.705 68.7944C205.736 70.7942 212.075 113.871 212.075 113.871L223.629 113.131Z" fill="#232323"/>
<path fill-rule="evenodd" clip-rule="evenodd" d="M173.389 103.291C175.064 114.18 178.414 173.091 177.019 186.775C175.624 200.459 241.799 204.364 233.14 189.29C224.485 174.211 230.63 124.23 230.63 124.23L173.389 103.291Z" fill="#FFAD69"/>
<path fill-rule="evenodd" clip-rule="evenodd" d="M177.969 104.956L230.62 124.235C230.62 124.235 227.065 153.343 229.21 173.841C189.063 170.737 178.758 120.03 178.083 110.266C177.969 108.426 177.914 106.651 177.969 104.956Z" fill="#D88344"/>
<path fill-rule="evenodd" clip-rule="evenodd" d="M247.524 101.436C252.404 135.068 260.688 168.606 219.921 163.082C179.149 157.562 172.819 105.29 172.934 95.4361C173.569 42.8246 237.93 35.3001 247.524 101.436Z" fill="#FFAD69"/>
<path fill-rule="evenodd" clip-rule="evenodd" d="M243.177 63.8822C233.582 52.7379 179.641 48.5332 170.712 58.4025C169.732 55.3027 171.731 51.493 171.751 51.458L169.552 50.2731C169.447 50.4631 167.012 55.0577 168.337 59.1875C168.382 59.3175 168.492 59.4075 168.537 59.5374C158.667 61.7123 164.967 104.589 164.967 104.589L176.521 103.849C180.386 100.94 193.8 80.451 196.755 68.0869C217.878 71.6616 255.371 78.0462 243.177 63.8822Z" fill="#232323"/>
<path fill-rule="evenodd" clip-rule="evenodd" d="M237.439 368.588C233.31 368.818 217.286 371.603 211.661 370.298C192.758 365.883 144.041 344.03 117.818 331.816C133.951 296.793 157.7 234.807 157.7 234.807L120.357 223.848C103.029 255.951 79.0952 323.751 74.2755 339.485C74.0055 340.895 73.9855 342.22 74.0705 343.49C73.9005 349.714 76.7503 356.069 84.2348 360.629C104.993 373.273 183.303 385.542 204.992 387.937C205.392 388.747 205.922 389.482 206.782 389.967C212.086 392.947 236.225 395.176 241.189 396.056C247.414 397.156 266.308 398.756 265.493 396.226C264.158 392.082 257.153 367.483 237.439 368.588Z" fill="#FFAD69"/>
<path fill-rule="evenodd" clip-rule="evenodd" d="M142.771 191.606C121.707 205.685 85.7498 269.725 85.7498 269.725L149.78 291.599C149.78 291.599 198.337 154.468 142.771 191.606Z" fill="#4D8DFF"/>
<path fill-rule="evenodd" clip-rule="evenodd" d="M213.196 99.7734C213.066 101.413 213.951 102.818 215.176 102.918C216.406 103.013 217.506 101.768 217.641 100.128C217.776 98.4934 216.886 97.0834 215.656 96.9834C214.431 96.8884 213.326 98.1334 213.196 99.7734Z" fill="#232323"/>
<path fill-rule="evenodd" clip-rule="evenodd" d="M239.165 100.462C239.035 102.102 239.92 103.507 241.145 103.607C242.375 103.702 243.475 102.457 243.61 100.817C243.74 99.182 242.85 97.772 241.625 97.672C240.4 97.577 239.295 98.822 239.165 100.462Z" fill="#232323"/>
<path fill-rule="evenodd" clip-rule="evenodd" d="M206.807 90.5704L204.712 89.2054C209.132 82.4354 216.552 84.0054 216.872 84.0754L216.327 86.5154C216.087 86.4654 210.262 85.2754 206.807 90.5704Z" fill="#232323"/>
<path fill-rule="evenodd" clip-rule="evenodd" d="M246.121 93.6877C243.476 87.9327 237.536 88.2477 237.301 88.2727L237.126 85.7777C237.446 85.7577 245.016 85.2927 248.391 92.6427L246.121 93.6877Z" fill="#232323"/>
<path fill-rule="evenodd" clip-rule="evenodd" d="M221.54 130.738C217.315 130.738 209.191 129.538 204.146 121.148L206.286 119.858C212.4 130.028 223.37 128.173 223.835 128.088L224.29 130.543C224.25 130.553 223.195 130.738 221.54 130.738Z" fill="#232323"/>
<path fill-rule="evenodd" clip-rule="evenodd" d="M240.762 119.347L228.623 119.182L228.658 116.682L237.413 116.802L232.008 98.3684L234.403 97.6635L240.762 119.347Z" fill="#D88344"/>
<path fill-rule="evenodd" clip-rule="evenodd" d="M183.276 107.57C186.955 115.87 191.57 123.899 180.006 125.389C168.442 126.884 163.062 113.9 162.407 111.355C158.907 97.7809 176.031 91.2513 183.276 107.57Z" fill="#FFAD69"/>
<path fill-rule="evenodd" clip-rule="evenodd" d="M496.357 407.057H17.9497C14.045 407.057 10.8502 403.862 10.8502 399.958C10.8502 396.053 14.045 392.858 17.9497 392.858H496.357C500.262 392.858 503.457 396.053 503.457 399.958C503.457 403.862 500.262 407.057 496.357 407.057Z" fill="white"/>
<path fill-rule="evenodd" clip-rule="evenodd" d="M194.998 407.057H14.4005C10.4958 407.057 7.30103 403.862 7.30103 399.958C7.30103 396.053 10.4958 392.858 14.4005 392.858H194.998C198.903 392.858 202.098 396.053 202.098 399.958C202.098 403.862 198.903 407.057 194.998 407.057Z" fill="#D8D5DB"/>
<path fill-rule="evenodd" clip-rule="evenodd" d="M472.932 381.585H324.532C318.867 381.585 315.107 376.986 316.137 371.316L332.321 282.317C333.356 276.642 338.786 272.048 344.46 272.048H492.855C498.525 272.048 502.285 276.642 501.255 282.317L485.071 371.316C484.036 376.986 478.606 381.585 472.932 381.585Z" fill="#2B2B2B"/>
<path fill-rule="evenodd" clip-rule="evenodd" d="M476.559 381.585H328.159C322.495 381.585 318.735 376.986 319.765 371.316L335.949 282.317C336.979 276.642 342.413 272.048 348.083 272.048H496.478C502.153 272.048 505.912 276.642 504.882 282.317L488.694 371.316C487.664 376.986 482.229 381.585 476.559 381.585Z" fill="#232323"/>
<path fill-rule="evenodd" clip-rule="evenodd" d="M427.036 344.825H391.094L397.638 308.832H433.591L427.036 344.825ZM395.538 306.332L388.089 347.325H429.086L436.586 306.332H395.538Z" fill="white"/>
<path fill-rule="evenodd" clip-rule="evenodd" d="M298.505 384.432C298.505 389.066 302.3 392.861 306.939 392.861H462.174C466.814 392.861 470.608 389.066 470.608 384.432H298.505Z" fill="#232323"/>
<path fill-rule="evenodd" clip-rule="evenodd" d="M253.405 384.432C253.405 389.066 257.195 392.861 261.835 392.861H322.881C327.52 392.861 331.315 389.066 331.315 384.432H253.405Z" fill="#2B2B2B"/>
<path fill-rule="evenodd" clip-rule="evenodd" d="M423.921 108.22C418.666 108.22 414.407 112.484 414.407 117.739H433.44C433.44 112.484 429.181 108.22 423.921 108.22Z" fill="#377ADB"/>
<path fill-rule="evenodd" clip-rule="evenodd" d="M423.931 108.222V200.646C423.931 205.911 419.661 210.135 414.397 210.135H345.196V117.762C345.196 112.492 349.461 108.222 354.691 108.222H423.931Z" fill="#4D8DFF"/>
<path fill-rule="evenodd" clip-rule="evenodd" d="M404.904 200.645L335.668 200.635C335.668 205.89 339.933 210.15 345.193 210.15L414.393 210.135C409.134 210.135 404.904 205.91 404.904 200.645Z" fill="#6EA9FF"/>
<path fill-rule="evenodd" clip-rule="evenodd" d="M355.546 123.742H413.592V121.242H355.546V123.742Z" fill="white"/>
<path fill-rule="evenodd" clip-rule="evenodd" d="M355.546 133.211H413.592V130.711H355.546V133.211Z" fill="white"/>
<path fill-rule="evenodd" clip-rule="evenodd" d="M355.546 142.68H413.592V140.18H355.546V142.68Z" fill="white"/>
<path fill-rule="evenodd" clip-rule="evenodd" d="M355.546 152.15H413.592V149.65H355.546V152.15Z" fill="white"/>
<path fill-rule="evenodd" clip-rule="evenodd" d="M355.546 161.619H413.592V159.119H355.546V161.619Z" fill="white"/>
<path fill-rule="evenodd" clip-rule="evenodd" d="M355.546 171.088H413.592V168.589H355.546V171.088Z" fill="white"/>
<path fill-rule="evenodd" clip-rule="evenodd" d="M355.546 180.558H413.592V178.058H355.546V180.558Z" fill="white"/>
<path fill-rule="evenodd" clip-rule="evenodd" d="M355.546 190.027H413.592V187.527H355.546V190.027Z" fill="white"/>
<path fill-rule="evenodd" clip-rule="evenodd" d="M520.648 157.882C507.399 171.131 485.91 171.131 472.656 157.882C459.407 144.628 459.407 123.144 472.656 109.89C485.91 96.6361 507.399 96.6361 520.648 109.89C533.897 123.144 533.897 144.628 520.648 157.882Z" fill="#FFC84D"/>
<path fill-rule="evenodd" clip-rule="evenodd" d="M496.656 133.887L523.619 160.85C508.83 175.644 484.476 175.644 469.687 160.85C463.353 154.511 459.448 146.141 458.663 137.212L496.656 133.887Z" fill="#232323"/>
<path fill-rule="evenodd" clip-rule="evenodd" d="M496.656 133.887L458.778 138.302C458.278 134.027 458.508 129.697 459.458 125.493C460.403 121.293 462.053 117.283 464.343 113.633L496.656 133.887Z" fill="white"/>
<path fill-rule="evenodd" clip-rule="evenodd" d="M330.549 84.7937H301.801C298.091 84.7937 295.051 81.7589 295.051 78.0441V49.3011C295.051 45.5913 298.091 42.5515 301.801 42.5515H330.549C334.259 42.5515 337.298 45.5913 337.298 49.3011V78.0441C337.298 81.7589 334.259 84.7937 330.549 84.7937Z" fill="#232323"/>
<path fill-rule="evenodd" clip-rule="evenodd" d="M322.146 93.1963H293.398C289.688 93.1963 286.648 90.1615 286.648 86.4467V57.7036C286.648 53.9939 289.688 50.9541 293.398 50.9541H322.146C325.856 50.9541 328.895 53.9939 328.895 57.7036V86.4467C328.895 90.1615 325.856 93.1963 322.146 93.1963Z" fill="#FF4E4A"/>
</g>
</svg>
