<svg width="535" height="600" viewBox="0 0 535 600" fill="none" xmlns="http://www.w3.org/2000/svg">
<path d="M531.992 389.715C524.874 429.801 504.4 466.299 473.902 493.271C463.373 502.556 451.979 510.812 439.877 517.927C397.222 543.717 344.359 559.349 289.327 572.17L279.908 574.291C271.728 576.149 263.337 576.912 254.956 576.559C167.427 572.91 107.808 443.169 89.2666 306.624C73.0922 185.069 100.165 47.3891 221.374 41.1757C266.889 38.9074 319.999 61.591 369.311 98.0821C372.862 100.696 376.412 103.408 379.913 106.169L382.083 107.895C474.149 181.272 549.35 300.262 531.992 389.715Z" fill="#FDE6D6"/>
<path d="M102.384 504.169C109.238 518.026 111.753 535.581 97.9949 541.202C82.6095 547.514 58.052 537.356 50.951 514.229C46.365 499.435 47.943 478.822 60.8135 470.883C71.317 464.078 94.1979 487.205 102.384 504.169Z" fill="#F5F9FD"/>
<path d="M478.834 193.403C472.67 188.028 467.738 180.039 472.966 174.664C478.193 169.289 492.296 168.845 500.58 178.658C505.857 184.921 509.506 195.178 505.512 201.441C501.961 206.766 486.526 199.961 478.834 193.403Z" fill="#FFAD69"/>
<path fill-rule="evenodd" clip-rule="evenodd" d="M187.891 113.813C184.637 113.468 181.333 113.221 178.029 113.073C177.767 113.148 177.487 113.049 177.33 112.827C177.172 112.605 177.172 112.308 177.33 112.086C177.487 111.864 177.767 111.766 178.029 111.84C180.985 111.84 184.023 112.166 186.994 112.484C187.294 112.516 187.593 112.548 187.891 112.58C188.058 112.592 188.212 112.673 188.316 112.805C188.419 112.936 188.462 113.106 188.434 113.27C188.393 113.551 188.172 113.772 187.891 113.813ZM139.072 117.364C138.806 117.343 138.575 117.17 138.48 116.92C138.386 116.579 138.584 116.226 138.924 116.131C142.031 115.292 145.285 114.553 148.787 113.912C148.944 113.867 149.112 113.889 149.252 113.974C149.393 114.058 149.492 114.196 149.526 114.355C149.587 114.694 149.37 115.021 149.033 115.095C145.779 115.736 142.573 116.476 139.467 117.314L139.072 117.364ZM217.084 119.336C220.24 120.174 223.396 121.062 226.552 122.048H226.996C227.323 122.048 227.588 121.783 227.588 121.456C227.588 121.13 227.323 120.865 226.996 120.865C223.791 119.829 220.585 118.942 217.479 118.103C217.302 118.043 217.107 118.062 216.946 118.157C216.785 118.252 216.673 118.412 216.64 118.596C216.597 118.916 216.781 119.224 217.084 119.336ZM120.481 124.07C120.255 124.051 120.052 123.922 119.939 123.725C119.796 123.411 119.927 123.041 120.235 122.886C123.194 121.555 126.251 120.273 129.407 119.139C129.557 119.075 129.727 119.076 129.876 119.141C130.025 119.206 130.141 119.33 130.196 119.484C130.301 119.797 130.152 120.138 129.851 120.273C126.744 121.407 123.687 122.689 120.777 124.021L120.481 124.07ZM235.971 125.155C239.028 126.24 242.135 127.423 245.192 128.607L245.636 128.656C245.963 128.656 246.228 128.391 246.228 128.064C246.228 127.737 245.963 127.472 245.636 127.472C242.579 126.289 239.472 125.105 236.365 124.021C236.054 123.937 235.726 124.081 235.576 124.366C235.477 124.692 235.65 125.038 235.971 125.155ZM103.419 133.932C103.222 133.946 103.033 133.852 102.926 133.686C102.815 133.575 102.752 133.424 102.752 133.267C102.752 133.109 102.815 132.958 102.926 132.847C105.638 130.924 108.4 129.1 111.26 127.472C111.55 127.367 111.874 127.483 112.031 127.749C112.188 128.014 112.133 128.354 111.901 128.557C109.09 130.185 106.279 131.96 103.666 133.834C103.607 133.879 103.54 133.912 103.469 133.932H103.419ZM263.043 136.447H263.339H263.388C263.593 136.44 263.779 136.329 263.881 136.151C263.948 136.008 263.954 135.843 263.898 135.695C263.843 135.547 263.73 135.427 263.585 135.362C260.627 133.932 257.619 132.601 254.561 131.269C254.418 131.203 254.253 131.197 254.105 131.252C253.957 131.308 253.837 131.421 253.772 131.565C253.63 131.879 253.76 132.249 254.068 132.404C257.076 133.686 260.134 135.066 263.043 136.447ZM88.5967 146.862C88.4772 146.897 88.3492 146.894 88.2311 146.852C88.1197 146.741 88.0571 146.59 88.0571 146.433C88.0571 146.276 88.1197 146.125 88.2311 146.014C90.5488 143.598 93.1624 141.083 95.4307 139.16C95.6787 138.922 96.0703 138.922 96.3183 139.16C96.5563 139.408 96.5563 139.799 96.3183 140.047C93.902 142.168 91.3871 144.436 89.2174 146.803C89.0342 146.929 88.7993 146.951 88.5967 146.862ZM298.153 155.235H297.858C295.096 153.509 292.236 151.833 289.376 150.304C289.191 150.189 289.081 149.985 289.088 149.768C289.094 149.55 289.217 149.353 289.408 149.25C289.6 149.147 289.832 149.154 290.017 149.268C291.512 150.119 293.007 150.997 294.488 151.866L294.489 151.866C295.841 152.66 297.181 153.447 298.499 154.2C298.61 154.311 298.673 154.462 298.673 154.619C298.673 154.776 298.61 154.927 298.499 155.038C298.413 155.145 298.289 155.216 298.153 155.235ZM75.9524 162.238H76.2976C76.4967 162.327 76.7299 162.288 76.8894 162.139C78.4968 159.532 80.2191 157.347 81.955 155.144L81.955 155.144C82.1895 154.846 82.4242 154.548 82.6589 154.249C82.7863 154.137 82.8592 153.975 82.8592 153.805C82.8592 153.635 82.7863 153.474 82.6589 153.361C82.5479 153.25 82.397 153.187 82.2397 153.187C82.0824 153.187 81.9316 153.25 81.8206 153.361C79.7988 155.926 77.8263 158.588 75.9524 161.399C75.841 161.51 75.7784 161.661 75.7784 161.818C75.7784 161.976 75.841 162.126 75.9524 162.238ZM314.772 165.936C314.663 165.989 314.536 165.989 314.427 165.936L306.241 160.413C305.955 160.236 305.866 159.861 306.044 159.575C306.221 159.289 306.596 159.201 306.882 159.378C309.676 161.153 312.438 162.977 315.166 164.851C315.374 165.092 315.374 165.449 315.166 165.69C315.084 165.832 314.936 165.925 314.772 165.936ZM66.6324 179.25C66.4745 179.187 66.3515 179.059 66.2948 178.898C66.2382 178.738 66.2534 178.561 66.3365 178.412C67.7173 175.404 69.246 172.445 70.8239 169.585C70.8856 169.322 71.1062 169.125 71.3752 169.094C71.6441 169.063 71.9035 169.205 72.0232 169.448C72.1429 169.69 72.0971 169.982 71.9088 170.177C70.3308 172.988 68.8515 175.946 67.4214 178.954C67.3569 179.099 67.2371 179.212 67.0888 179.267C66.9405 179.323 66.7761 179.317 66.6324 179.25ZM345.986 189.606C346.113 189.655 346.254 189.655 346.381 189.606C346.519 189.613 346.657 189.579 346.775 189.507C346.887 189.396 346.949 189.245 346.949 189.088C346.949 188.931 346.887 188.78 346.775 188.669C345.004 187.309 343.375 185.969 341.77 184.65L341.767 184.647L341.766 184.646L341.762 184.643L341.761 184.642C340.867 183.907 339.981 183.178 339.083 182.456C338.81 182.306 338.468 182.374 338.274 182.617C338.079 182.86 338.088 183.208 338.294 183.442C340.2 184.804 341.919 186.236 343.645 187.674L343.645 187.675L343.645 187.675L343.645 187.675L343.646 187.675L343.646 187.676L343.646 187.676L343.646 187.676L343.647 187.676L343.647 187.677L343.647 187.677L343.648 187.677L343.648 187.677L343.648 187.677L343.648 187.678L343.649 187.678L343.649 187.678C344.421 188.322 345.194 188.966 345.986 189.606ZM59.6793 197.841C59.375 197.707 59.2092 197.376 59.2848 197.052C60.3203 193.847 61.4052 190.691 62.5887 187.683C62.7389 187.398 63.0664 187.254 63.3777 187.338C63.5312 187.392 63.6552 187.508 63.7206 187.658C63.7859 187.807 63.7867 187.977 63.7229 188.127C62.5887 191.085 61.5038 194.241 60.4683 197.397C60.3725 197.737 60.0196 197.936 59.6793 197.841ZM361.42 202.508C361.354 202.507 361.288 202.497 361.224 202.476C358.808 200.257 356.293 198.088 353.778 195.967C353.562 195.711 353.562 195.336 353.778 195.08C354.026 194.842 354.417 194.842 354.665 195.08L362.112 201.589C362.327 201.846 362.327 202.22 362.112 202.476C361.906 202.622 361.635 202.632 361.42 202.508ZM54.3342 216.716C54.4286 216.858 54.5794 216.952 54.7481 216.974C54.9354 216.989 55.1199 216.921 55.2528 216.789C55.3857 216.656 55.4536 216.471 55.4385 216.284C56.1289 213.079 56.8686 209.824 57.7069 206.668C57.7717 206.344 57.5796 206.024 57.2631 205.928C57.0996 205.867 56.9175 205.881 56.7653 205.967C56.6132 206.052 56.5066 206.201 56.4741 206.372C56.3144 207.061 56.1547 207.743 55.9962 208.421L55.9962 208.421L55.9962 208.421L55.9961 208.421L55.9961 208.421C55.3717 211.09 54.7663 213.678 54.255 216.235C54.211 216.399 54.2398 216.574 54.3342 216.716ZM389.628 230.19C389.487 230.253 389.325 230.253 389.184 230.19C386.965 227.774 384.647 225.259 382.379 223.04C382.141 222.792 382.141 222.4 382.379 222.152C382.636 221.937 383.01 221.937 383.266 222.152C384.245 223.173 385.233 224.231 386.219 225.287L386.219 225.287C387.517 226.677 388.81 228.062 390.072 229.352C390.31 229.6 390.31 229.991 390.072 230.239C389.922 230.266 389.768 230.249 389.628 230.19ZM50.8524 235.762C50.8225 236.1 51.0601 236.402 51.3948 236.453C51.7164 236.486 52.0123 236.274 52.0852 235.96C52.4797 232.557 52.9235 229.253 53.4166 226.097C53.4619 225.938 53.4324 225.767 53.3364 225.633C53.2404 225.499 53.0884 225.415 52.9235 225.407C52.7663 225.378 52.6042 225.415 52.4742 225.507C52.3442 225.6 52.2572 225.742 52.2331 225.9C51.6907 229.154 51.2469 232.458 50.8524 235.762ZM402.745 244.984C402.587 245.049 402.41 245.049 402.252 244.984L395.792 237.488C395.68 237.377 395.618 237.226 395.618 237.069C395.618 236.912 395.68 236.761 395.792 236.65C395.904 236.522 396.066 236.449 396.236 236.449C396.405 236.449 396.567 236.522 396.679 236.65C398.247 238.399 399.841 240.257 401.443 242.123L401.456 242.138C402.017 242.791 402.578 243.445 403.139 244.096C403.377 244.344 403.377 244.735 403.139 244.984C403.013 245.033 402.872 245.033 402.745 244.984ZM49.38 255.938C49.4925 256.06 49.651 256.129 49.8168 256.128C50.1357 256.132 50.4089 255.901 50.4579 255.586C50.5176 254.253 50.6253 252.913 50.7327 251.577C50.8916 249.601 51.0496 247.636 51.0496 245.723C51.0532 245.377 50.8002 245.082 50.4579 245.033C50.2926 245.019 50.1291 245.075 50.0072 245.188C49.8853 245.3 49.8163 245.459 49.8168 245.625C49.7638 246.325 49.7062 247.027 49.6485 247.731L49.6485 247.731C49.4378 250.3 49.2251 252.894 49.2251 255.487C49.2113 255.652 49.2674 255.816 49.38 255.938ZM415.27 260.418C415.114 260.49 414.934 260.49 414.777 260.418C412.755 257.755 410.733 255.142 408.712 252.627C408.6 252.516 408.538 252.365 408.538 252.208C408.538 252.051 408.6 251.9 408.712 251.789C408.824 251.661 408.986 251.588 409.155 251.588C409.325 251.588 409.487 251.661 409.599 251.789C410.2 252.554 410.809 253.311 411.424 254.074C412.828 255.816 414.258 257.591 415.665 259.58C415.903 259.828 415.903 260.22 415.665 260.468L415.27 260.418ZM49.2252 275.311C49.2252 275.638 49.4901 275.902 49.8169 275.902H49.8662C50.0321 275.903 50.1906 275.834 50.3031 275.712C50.4156 275.59 50.4718 275.427 50.458 275.261V268.358V265.399C50.4585 265.233 50.3895 265.075 50.2676 264.962C50.1457 264.85 49.9822 264.793 49.8169 264.807C49.4901 264.807 49.2252 265.072 49.2252 265.399V268.358V275.311ZM426.563 276.494C426.388 276.558 426.195 276.558 426.02 276.494C424.245 273.831 422.371 271.119 420.448 268.358C420.337 268.247 420.274 268.096 420.274 267.938C420.274 267.781 420.337 267.63 420.448 267.519C420.696 267.281 421.088 267.281 421.336 267.519C423.308 270.231 425.182 272.993 426.957 275.656C427.165 275.897 427.165 276.253 426.957 276.494C426.831 276.549 426.688 276.549 426.563 276.494ZM436.524 292.964C436.618 293.149 436.809 293.264 437.017 293.26L437.362 292.964C437.473 292.853 437.536 292.703 437.536 292.545C437.536 292.388 437.473 292.237 437.362 292.126C435.932 289.315 434.206 286.505 432.431 283.644C432.19 283.436 431.833 283.436 431.592 283.644C431.377 283.901 431.377 284.275 431.592 284.532C432.539 286.218 433.539 287.905 434.539 289.591C435.206 290.715 435.873 291.84 436.524 292.964ZM50.6059 295.627C50.2974 295.628 50.0398 295.392 50.0141 295.085C50.0141 293.07 49.8362 291.056 49.662 289.084C49.5462 287.774 49.4321 286.482 49.3731 285.222C49.3721 284.887 49.6302 284.607 49.9648 284.581C50.1301 284.567 50.2936 284.624 50.4155 284.736C50.5374 284.849 50.6065 285.007 50.6059 285.173C50.6059 287.472 50.8088 289.821 51.0145 292.204C51.0957 293.143 51.1772 294.087 51.2469 295.035C51.2608 295.201 51.2046 295.364 51.0921 295.486C50.9796 295.608 50.8211 295.677 50.6552 295.677L50.6059 295.627ZM445.794 310.322C445.923 310.527 446.144 310.656 446.386 310.668V310.618C446.694 310.464 446.825 310.094 446.682 309.78C445.252 306.871 443.723 303.912 442.145 300.953C441.974 300.664 441.608 300.556 441.307 300.706C441.099 300.947 441.099 301.304 441.307 301.545C442.885 304.504 444.414 307.462 445.794 310.322ZM52.677 315.303C52.3581 315.307 52.085 315.076 52.0359 314.761C51.6414 311.506 51.2469 308.202 50.9017 304.898C50.8735 304.733 50.9163 304.564 51.0197 304.432C51.123 304.301 51.2773 304.219 51.4442 304.208C51.7814 304.178 52.0838 304.415 52.1346 304.75C52.4797 308.005 52.8742 311.309 53.2687 314.613C53.297 314.777 53.2542 314.947 53.1508 315.078C53.0474 315.21 52.8932 315.291 52.7263 315.303H52.677ZM453.586 328.371C453.685 328.61 453.919 328.765 454.178 328.765L454.375 328.716C454.528 328.661 454.652 328.545 454.718 328.396C454.783 328.246 454.784 328.077 454.72 327.927C453.586 324.869 452.304 321.812 450.972 318.755C450.818 318.447 450.448 318.316 450.134 318.459C449.989 318.523 449.877 318.643 449.821 318.791C449.765 318.94 449.772 319.104 449.838 319.248C451.17 322.305 452.402 325.363 453.586 328.371ZM55.6357 334.831C55.3438 334.835 55.0926 334.625 55.0439 334.338C54.4522 331.083 53.9097 327.779 53.4166 324.475C53.3884 324.305 53.43 324.13 53.5321 323.991C53.6342 323.852 53.7881 323.76 53.9591 323.735C54.2963 323.706 54.5987 323.943 54.6494 324.278C55.0213 326.732 55.4213 329.187 55.8282 331.684C55.9608 332.498 56.0941 333.316 56.2274 334.14C56.2885 334.479 56.0707 334.806 55.7343 334.88L55.6357 334.831ZM460.194 347.011C460.242 347.299 460.493 347.508 460.785 347.504L460.933 347.455C461.093 347.42 461.231 347.321 461.315 347.181C461.399 347.041 461.422 346.872 461.377 346.715C460.489 343.608 459.503 340.403 458.468 337.247C458.423 337.084 458.312 336.949 458.161 336.873C458.011 336.798 457.835 336.79 457.679 336.852C457.516 336.897 457.38 337.008 457.305 337.159C457.23 337.309 457.222 337.485 457.284 337.641C458.32 340.748 459.306 343.953 460.194 347.011ZM59.6793 354.21C59.3875 354.214 59.1362 354.005 59.0876 353.717C58.3479 350.463 57.6575 347.208 57.0658 343.855C57.0217 343.69 57.0506 343.515 57.145 343.373C57.2394 343.232 57.3902 343.138 57.5589 343.115C57.7161 343.087 57.8782 343.123 58.0082 343.216C58.1383 343.309 58.2252 343.45 58.2493 343.608C58.515 344.916 58.7893 346.242 59.0684 347.591L59.0685 347.591C59.4628 349.497 59.8669 351.45 60.2711 353.471C60.3156 353.628 60.2932 353.796 60.2092 353.936C60.1251 354.076 59.9869 354.176 59.8273 354.21H59.6793ZM464.139 366.144C464.209 366.439 464.476 366.645 464.78 366.637L464.878 366.588C465.036 366.564 465.178 366.477 465.271 366.347C465.363 366.217 465.4 366.055 465.371 365.897C464.878 362.544 464.286 359.29 463.547 356.035C463.473 355.699 463.146 355.481 462.807 355.542C462.491 355.637 462.298 355.957 462.363 356.281C463.054 359.733 463.645 362.988 464.139 366.144ZM64.3147 373.886C64.0379 373.895 63.792 373.71 63.7229 373.442V372.949C62.8846 369.744 62.0463 366.538 61.2573 363.087C61.22 362.753 61.4281 362.441 61.7504 362.347C62.0705 362.304 62.3777 362.488 62.4901 362.791C63.2791 365.996 64.0681 369.201 64.9064 372.357V372.85C65.0012 373.191 64.8027 373.544 64.4626 373.639L64.3147 373.886ZM465.865 385.77C465.865 386.097 466.13 386.362 466.456 386.362L466.506 386.313C466.84 386.287 467.098 386.007 467.097 385.672C467.074 384.142 466.964 382.591 466.854 381.038L466.853 381.037C466.729 379.286 466.604 377.534 466.604 375.809C466.592 375.639 466.512 375.481 466.382 375.37C466.253 375.259 466.084 375.204 465.914 375.217C465.747 375.229 465.593 375.311 465.489 375.442C465.386 375.574 465.343 375.743 465.372 375.908L465.372 375.909C465.618 379.212 465.865 382.516 465.865 385.77ZM69.5418 392.871C69.283 392.871 69.0496 392.715 68.95 392.477C68.0131 389.321 67.0762 386.115 66.1885 382.959C66.144 382.802 66.1664 382.634 66.2504 382.493C66.3345 382.353 66.4727 382.254 66.6324 382.22C66.7828 382.174 66.9453 382.189 67.0841 382.263C67.2229 382.337 67.3265 382.464 67.372 382.614C68.2597 385.819 69.1966 388.975 70.1335 392.082C70.2326 392.408 70.0593 392.755 69.739 392.871H69.5418ZM464.8 405.944C464.905 406.068 465.061 406.139 465.224 406.136L465.421 406.087C465.682 406.027 465.879 405.811 465.914 405.544C465.988 404.858 466.069 404.167 466.15 403.472L466.15 403.466C466.448 400.918 466.752 398.315 466.752 395.682C466.732 395.355 466.485 395.087 466.16 395.041C465.995 395.027 465.832 395.083 465.71 395.196C465.588 395.308 465.519 395.467 465.519 395.633C465.322 398.986 465.026 402.29 464.681 405.495C464.651 405.655 464.695 405.82 464.8 405.944ZM75.6564 411.708C75.3899 411.688 75.1594 411.515 75.0647 411.265C74.0291 408.158 72.9936 405.051 72.0073 401.895C71.981 401.599 72.1613 401.324 72.4431 401.23C72.725 401.136 73.0344 401.248 73.1908 401.501C74.1771 404.657 75.2126 407.763 76.2482 410.87C76.3102 411.027 76.3027 411.202 76.2274 411.353C76.1521 411.503 76.0162 411.615 75.8537 411.659L75.6564 411.708ZM461.426 424.628C461.365 424.967 461.583 425.294 461.919 425.368L462.215 425.812C462.42 425.76 462.589 425.618 462.675 425.426C462.762 425.234 462.756 425.013 462.659 424.825C463.35 421.423 463.991 418.168 464.484 414.963C464.512 414.806 464.476 414.644 464.383 414.514C464.29 414.384 464.149 414.297 463.991 414.273C463.652 414.211 463.325 414.429 463.251 414.766C462.758 418.119 462.117 421.374 461.426 424.628ZM81.9684 430.299C81.7097 430.299 81.4762 430.144 81.3767 429.905C80.2425 426.847 79.1083 423.741 78.0235 420.634C77.9009 420.321 78.0555 419.968 78.3687 419.845C78.6818 419.722 79.0351 419.877 79.1576 420.19C79.5357 421.226 79.9082 422.261 80.2808 423.297C81.026 425.368 81.7712 427.439 82.5602 429.51C82.6593 429.836 82.486 430.183 82.1657 430.299H81.9684ZM456.347 443.761C456.248 444.087 456.421 444.434 456.742 444.55H456.939C457.198 444.55 457.431 444.395 457.531 444.156C458.566 441.049 459.553 437.844 460.44 434.688C460.522 434.361 460.323 434.03 459.996 433.948C459.67 433.867 459.338 434.065 459.257 434.392C458.369 437.499 457.432 440.655 456.347 443.761ZM89.2667 448.693C89.0299 448.709 88.8101 448.569 88.7243 448.348C87.4422 445.29 86.2094 442.233 85.0259 439.175C84.9448 439.02 84.9364 438.838 85.003 438.676C85.0696 438.514 85.2044 438.39 85.3711 438.337C85.6971 438.238 86.0437 438.411 86.1601 438.732C87.3436 441.789 88.5764 444.846 89.8585 447.854C89.9687 448.181 89.8214 448.539 89.5133 448.693H89.2667ZM448.95 461.958C448.808 462.271 448.938 462.641 449.246 462.796C449.56 462.939 449.93 462.808 450.085 462.5C451.515 459.591 452.846 456.533 454.128 453.476C454.233 453.163 454.084 452.822 453.783 452.687C453.639 452.62 453.475 452.614 453.327 452.67C453.178 452.726 453.059 452.838 452.994 452.983C451.712 456.04 450.38 459.048 448.95 461.958ZM97.2553 466.84C97.0223 466.841 96.8099 466.706 96.7129 466.494C95.3321 463.486 94.0007 460.478 92.6692 457.421C92.6027 457.277 92.5966 457.113 92.6522 456.965C92.7078 456.816 92.8205 456.696 92.9651 456.632C93.1201 456.551 93.303 456.542 93.4648 456.609C93.6265 456.676 93.7505 456.81 93.8034 456.977C94.8087 459.336 95.8746 461.694 96.9298 464.029L96.9308 464.031L96.933 464.036L96.9332 464.036L96.9367 464.044L96.9429 464.058L96.9557 464.086L97.3863 465.039L97.5468 465.395L97.7977 465.952C97.9403 466.265 97.8097 466.636 97.5019 466.79L97.2553 466.84ZM439.335 480.006H439.63L439.729 480.055C439.987 480.112 440.256 480.016 440.419 479.809C441.173 478.49 441.96 477.15 442.753 475.798C443.623 474.317 444.5 472.822 445.351 471.327C445.539 471.132 445.585 470.84 445.465 470.598C445.345 470.355 445.086 470.213 444.817 470.244C444.548 470.275 444.327 470.471 444.266 470.735C442.786 473.595 441.11 476.406 439.335 479.168C439.223 479.279 439.161 479.429 439.161 479.587C439.161 479.744 439.223 479.895 439.335 480.006ZM105.836 484.641C105.603 484.643 105.39 484.508 105.293 484.296C103.764 481.337 102.285 478.329 100.904 475.42C100.838 475.276 100.832 475.112 100.887 474.963C100.943 474.815 101.056 474.695 101.2 474.631C101.425 474.43 101.765 474.43 101.989 474.631L106.378 483.507C106.529 483.808 106.421 484.174 106.131 484.345L105.836 484.641ZM427.648 495.934H428.042H428.141C428.237 495.961 428.34 495.961 428.437 495.934C430.557 493.37 432.579 490.707 434.502 488.093C434.613 487.982 434.676 487.831 434.676 487.674C434.676 487.517 434.613 487.366 434.502 487.255C434.391 487.143 434.24 487.081 434.083 487.081C433.926 487.081 433.775 487.143 433.664 487.255C432.091 489.594 430.452 491.603 428.774 493.66L428.763 493.673C428.582 493.896 428.4 494.119 428.218 494.343C428.125 494.457 428.032 494.571 427.94 494.685C427.842 494.805 427.745 494.925 427.648 495.046C427.41 495.294 427.41 495.686 427.648 495.934ZM115.205 502.049C114.985 502.049 114.781 501.938 114.662 501.753L114.29 501.089C112.828 498.485 111.322 495.8 109.731 493.074C109.666 492.793 109.795 492.503 110.049 492.365C110.302 492.227 110.616 492.275 110.816 492.482C112.394 495.441 114.021 498.35 115.747 501.112C115.955 501.352 115.955 501.709 115.747 501.95L115.205 502.049ZM414.333 510.53C414.458 510.592 414.603 510.592 414.728 510.53C414.843 510.609 414.983 510.644 415.122 510.629C417.295 508.592 419.426 506.265 421.439 504.066L421.439 504.065L421.977 503.479C422.215 503.231 422.215 502.839 421.977 502.591C421.866 502.48 421.715 502.417 421.558 502.417C421.4 502.417 421.249 502.48 421.138 502.591C419.953 503.777 418.723 505.08 417.473 506.405C416.435 507.505 415.384 508.619 414.333 509.692C414.208 509.795 414.135 509.949 414.135 510.111C414.135 510.273 414.208 510.427 414.333 510.53ZM125.363 518.913C125.146 518.906 124.945 518.796 124.821 518.617C123.095 515.905 121.32 513.045 119.594 510.234C119.386 509.994 119.386 509.637 119.594 509.396C119.705 509.285 119.856 509.222 120.013 509.222C120.17 509.222 120.321 509.285 120.432 509.396C121.845 511.764 123.328 514.133 124.792 516.472L125.253 517.209L125.61 517.779C125.818 518.02 125.818 518.377 125.61 518.617L125.363 518.913ZM399.589 523.598C399.712 523.745 399.89 523.834 400.082 523.844L400.23 523.795C400.287 523.754 400.337 523.704 400.378 523.647L407.873 517.187C408.111 516.939 408.111 516.548 407.873 516.3C407.762 516.188 407.611 516.126 407.454 516.126C407.297 516.126 407.146 516.188 407.035 516.3C406.057 517.144 405.093 517.988 404.133 518.829C402.625 520.15 401.126 521.464 399.589 522.76C399.477 522.871 399.415 523.021 399.415 523.179C399.415 523.336 399.477 523.487 399.589 523.598ZM136.508 535.334C136.303 535.328 136.117 535.216 136.015 535.038C134.092 532.474 132.168 529.762 130.295 527C130.079 526.744 130.079 526.37 130.295 526.113C130.543 525.875 130.934 525.875 131.182 526.113C133.056 528.825 134.979 531.537 136.853 534.151C136.965 534.262 137.027 534.413 137.027 534.57C137.027 534.727 136.965 534.878 136.853 534.989C136.817 535.104 136.748 535.207 136.656 535.285L136.508 535.334ZM383.908 535.827C384.064 535.899 384.244 535.899 384.401 535.827L384.549 535.778C384.57 535.789 384.593 535.799 384.616 535.807C384.626 535.81 384.636 535.813 384.646 535.816C384.662 535.821 384.679 535.825 384.697 535.827C387.458 533.904 390.121 531.932 392.685 529.959C392.797 529.848 392.859 529.697 392.859 529.54C392.859 529.383 392.797 529.232 392.685 529.121C392.574 529.009 392.423 528.947 392.266 528.947C392.109 528.947 391.958 529.009 391.847 529.121C389.541 530.894 387.156 532.628 384.727 534.394L384.722 534.397L383.908 534.989C383.796 535.1 383.734 535.251 383.734 535.408C383.734 535.565 383.796 535.716 383.908 535.827ZM367.881 546.725C367.674 546.729 367.482 546.614 367.388 546.43C367.277 546.319 367.214 546.168 367.214 546.01C367.214 545.853 367.277 545.702 367.388 545.591C370.248 543.816 373.059 542.041 375.722 540.266C375.833 540.154 375.984 540.091 376.141 540.091C376.298 540.091 376.449 540.154 376.56 540.266C376.672 540.377 376.734 540.527 376.734 540.685C376.734 540.842 376.672 540.993 376.56 541.104C373.897 542.879 371.086 544.654 368.226 546.43L367.881 546.725ZM148.294 550.818C148.452 550.879 148.628 550.879 148.787 550.818L149.23 550.917C149.468 550.669 149.468 550.277 149.23 550.029C148.13 548.615 147.016 547.298 145.902 545.983L145.902 545.982L145.902 545.982L145.902 545.982L145.902 545.982L145.902 545.982L145.902 545.981L145.902 545.981L145.901 545.981L145.901 545.981L145.901 545.981L145.901 545.98L145.901 545.98L145.901 545.98L145.901 545.98L145.9 545.98L145.9 545.98L145.9 545.979L145.9 545.979L145.9 545.979L145.9 545.979L145.9 545.979L145.899 545.978L145.899 545.978L145.899 545.978L145.899 545.978L145.899 545.978L145.899 545.978L145.899 545.977L145.899 545.977L145.898 545.977L145.898 545.977L145.898 545.977L145.898 545.976L145.898 545.976L145.898 545.976L145.898 545.976L145.897 545.976L145.897 545.976L145.897 545.975L145.897 545.975L145.897 545.975L145.897 545.975L145.897 545.975L145.896 545.974L145.896 545.974L145.896 545.974L145.896 545.974L145.896 545.974L145.896 545.974L145.896 545.973L145.895 545.973L145.895 545.973L145.895 545.973L145.895 545.973L145.895 545.972L145.895 545.972L145.895 545.972L145.895 545.972L145.894 545.972L145.894 545.972L145.894 545.971L145.894 545.971L145.894 545.971L145.894 545.971L145.894 545.971L145.893 545.97L145.893 545.97L145.893 545.97L145.893 545.97L145.893 545.97L145.893 545.97L145.893 545.969L145.892 545.969L145.892 545.969L145.892 545.969L145.892 545.969L145.892 545.968L145.892 545.968L145.892 545.968L145.892 545.968L145.891 545.968L145.891 545.967L145.891 545.967L145.891 545.967L145.891 545.967L145.891 545.967L145.891 545.967L145.89 545.966L145.89 545.966L145.89 545.966L145.89 545.966L145.89 545.966L145.89 545.965L145.89 545.965L145.889 545.965L145.889 545.965L145.889 545.965L145.889 545.965L145.889 545.964L145.889 545.964L145.889 545.964L145.888 545.964L145.888 545.964L145.888 545.963L145.888 545.963L145.888 545.963L145.888 545.963L145.888 545.963L145.888 545.963L145.887 545.962L145.887 545.962L145.887 545.962L145.887 545.962L145.887 545.962L145.887 545.961L145.887 545.961C144.91 544.807 143.933 543.653 142.968 542.435C142.764 542.176 142.388 542.132 142.13 542.337C141.871 542.541 141.827 542.916 142.031 543.175C144.102 545.887 146.173 548.402 148.294 550.818ZM350.967 556.637C350.74 556.618 350.538 556.489 350.425 556.292C350.274 555.991 350.382 555.625 350.671 555.454C353.581 553.876 356.49 552.248 359.251 550.522C359.492 550.314 359.849 550.314 360.09 550.522C360.201 550.633 360.264 550.784 360.264 550.942C360.264 551.099 360.201 551.25 360.09 551.361L351.46 556.292L350.967 556.637ZM162.002 565.218C162.129 565.267 162.27 565.267 162.397 565.218V565.168C162.536 565.239 162.701 565.239 162.841 565.168C162.966 565.065 163.039 564.911 163.039 564.749C163.039 564.587 162.966 564.433 162.841 564.33C160.572 562.21 158.255 559.744 155.937 557.279L155.937 557.278C155.689 557.04 155.297 557.04 155.049 557.278C154.924 557.381 154.851 557.535 154.851 557.697C154.851 557.86 154.924 558.014 155.049 558.117C157.383 560.582 159.701 562.949 162.002 565.218ZM333.412 565.711C333.179 565.712 332.966 565.577 332.869 565.365C332.786 565.217 332.771 565.04 332.828 564.879C332.884 564.719 333.007 564.591 333.165 564.527L341.943 560.089C342.137 559.901 342.429 559.855 342.672 559.975C342.915 560.094 343.056 560.354 343.025 560.623C342.995 560.892 342.798 561.112 342.535 561.174C339.576 562.703 336.666 564.182 333.658 565.612L333.412 565.711ZM314.969 573.699C315.051 573.93 315.266 574.087 315.511 574.094L315.758 574.044L324.733 569.902C325 569.864 325.215 569.661 325.269 569.397C325.324 569.132 325.206 568.861 324.975 568.72C324.745 568.58 324.45 568.599 324.24 568.768C322.138 569.784 320.012 570.75 317.878 571.719L317.875 571.72C317.006 572.115 316.135 572.511 315.265 572.91C315.12 572.975 315.008 573.095 314.952 573.243C314.896 573.391 314.902 573.555 314.969 573.699ZM177.437 578.137C177.325 578.175 177.204 578.175 177.092 578.137C175.57 576.966 174.117 575.761 172.61 574.51L172.609 574.509C171.578 573.653 170.521 572.776 169.399 571.875C169.14 571.657 169.107 571.27 169.325 571.012C169.543 570.753 169.929 570.72 170.188 570.938L170.741 571.415L170.741 571.415C173.06 573.418 175.319 575.369 177.832 577.151C177.959 577.263 178.032 577.425 178.032 577.595C178.032 577.765 177.959 577.926 177.832 578.039C177.682 578.126 177.502 578.144 177.338 578.088L177.437 578.137ZM296.92 581.54C297.006 581.761 297.226 581.901 297.463 581.885L297.709 581.836C300.767 580.603 303.775 579.321 306.832 577.989C306.977 577.925 307.09 577.805 307.145 577.657C307.201 577.509 307.195 577.344 307.128 577.2C306.978 576.915 306.65 576.772 306.339 576.855C303.331 578.187 300.274 579.469 297.216 580.702C296.909 580.856 296.778 581.226 296.92 581.54ZM193.907 588.838H193.611C191.013 587.449 188.415 585.898 185.854 584.369L185.854 584.368L185.08 583.907C184.872 583.666 184.872 583.309 185.08 583.068C185.191 582.957 185.342 582.894 185.5 582.894C185.657 582.894 185.808 582.957 185.919 583.068C188.68 584.893 191.54 586.57 194.351 588C194.559 588.24 194.559 588.597 194.351 588.838C194.202 588.875 194.045 588.858 193.907 588.789V588.838ZM278.527 588.887C278.609 589.118 278.825 589.275 279.07 589.282L279.316 589.233L288.488 585.583C288.789 585.448 288.938 585.107 288.833 584.794C288.698 584.494 288.357 584.344 288.044 584.449L278.872 588.098C278.708 588.139 278.573 588.253 278.505 588.408C278.437 588.562 278.446 588.74 278.527 588.887ZM260.627 596.235C260.35 596.244 260.104 596.059 260.035 595.791C259.936 595.465 260.109 595.118 260.43 595.002C261.86 594.558 263.339 594.016 264.818 593.473L269.75 591.649C269.9 591.585 270.069 591.586 270.219 591.651C270.368 591.717 270.484 591.841 270.539 591.994C270.62 592.142 270.628 592.319 270.561 592.474C270.493 592.628 270.357 592.743 270.193 592.783L265.262 594.657C263.783 595.199 262.254 595.742 260.775 596.186L260.627 596.235ZM202.734 593.128C205.778 594.428 208.889 595.564 212.054 596.531V596.481C212.366 596.565 212.693 596.421 212.843 596.136C212.938 595.796 212.74 595.443 212.4 595.347C209.284 594.396 206.222 593.277 203.227 591.994C202.901 591.884 202.543 592.031 202.389 592.339C202.284 592.652 202.433 592.993 202.734 593.128ZM241.247 599.983C240.92 599.983 240.655 599.718 240.655 599.391C240.626 599.231 240.67 599.066 240.775 598.942C240.88 598.818 241.035 598.747 241.198 598.75C244.509 598.526 247.802 598.098 251.06 597.468C251.399 597.407 251.726 597.624 251.8 597.961C251.828 598.118 251.792 598.28 251.699 598.41C251.606 598.54 251.465 598.627 251.307 598.651C248.049 599.292 244.756 599.736 241.444 599.983H241.247ZM231.385 599.983C228.077 599.785 224.783 599.39 221.522 598.799C221.354 598.777 221.203 598.683 221.108 598.541C221.014 598.399 220.985 598.224 221.029 598.06C221.053 597.902 221.14 597.76 221.27 597.667C221.4 597.574 221.562 597.538 221.719 597.566C224.98 598.158 228.274 598.553 231.582 598.75C231.748 598.749 231.906 598.818 232.019 598.94C232.131 599.062 232.188 599.226 232.174 599.391C232.164 599.581 232.071 599.758 231.918 599.872C231.766 599.986 231.57 600.027 231.385 599.983ZM375.672 216.037C375.756 216.08 375.849 216.096 375.94 216.088C376.128 216.203 376.368 216.205 376.56 216.087C376.798 215.839 376.798 215.447 376.56 215.199C374.805 213.366 372.834 211.533 370.915 209.748C370.408 209.277 369.904 208.808 369.41 208.345C369.162 208.107 368.77 208.107 368.522 208.345C368.411 208.456 368.348 208.606 368.348 208.764C368.348 208.921 368.411 209.072 368.522 209.183C369.987 210.648 371.581 212.156 373.191 213.679L373.191 213.679L373.191 213.679C374.019 214.463 374.852 215.25 375.672 216.037ZM330.552 177.426H330.897C331.042 177.427 331.183 177.374 331.291 177.278C331.403 177.167 331.465 177.016 331.465 176.859C331.465 176.701 331.403 176.551 331.291 176.44C328.629 174.467 325.966 172.495 323.254 170.571C322.976 170.472 322.667 170.574 322.503 170.819C322.34 171.064 322.364 171.389 322.563 171.607C325.226 173.481 327.938 175.453 330.552 177.426ZM280.944 145.373H280.648C277.755 143.795 274.845 142.266 271.919 140.787C271.745 140.698 271.62 140.534 271.582 140.341C271.544 140.149 271.595 139.95 271.722 139.801C271.795 139.651 271.927 139.539 272.087 139.492C272.246 139.446 272.418 139.468 272.56 139.554C275.421 140.984 278.379 142.562 281.289 144.14C281.4 144.251 281.463 144.402 281.463 144.559C281.463 144.717 281.4 144.867 281.289 144.978C281.259 145.15 281.149 145.296 280.993 145.373H280.944ZM197.754 115.144C201.107 115.638 204.362 116.279 207.616 116.969C207.928 117.031 208.233 116.835 208.307 116.525C208.368 116.186 208.15 115.86 207.813 115.785C204.411 115.046 201.107 114.454 197.951 113.912C197.794 113.883 197.632 113.919 197.502 114.012C197.372 114.105 197.285 114.247 197.261 114.405C197.2 114.744 197.417 115.07 197.754 115.144ZM157.888 113.673C158.001 113.776 158.152 113.827 158.304 113.813H158.255C161.509 113.468 164.813 113.172 168.117 113.172C168.283 113.172 168.441 113.103 168.554 112.981C168.666 112.86 168.723 112.696 168.709 112.531C168.685 112.214 168.434 111.963 168.117 111.939C164.764 112.038 161.46 112.284 158.255 112.629C158.092 112.627 157.937 112.697 157.831 112.821C157.726 112.946 157.683 113.11 157.712 113.27C157.712 113.423 157.775 113.569 157.888 113.673Z" fill="#D8D5DB"/>
<path d="M464.04 390.159C464.04 390.75 464.04 391.244 464.04 391.786C462.807 405.544 450.972 434.885 439.384 460.823C439.778 470.193 440.074 478.576 440.124 485.479C440.124 486.762 440.124 487.945 440.124 489.128H438.694C439.039 495.243 439.483 505.845 439.828 518.025C397.173 543.816 344.31 559.448 289.277 572.269L279.859 574.389C271.679 576.248 263.288 577.01 254.907 576.658C254.402 574.594 254.219 572.465 254.364 570.346C255.53 542.545 258.429 514.843 263.043 487.403L259.986 486.959C271.18 449.186 276.801 394.695 279.711 347.405C280.056 341.833 280.352 336.408 280.598 331.033C273.448 338.332 268.517 342.868 268.517 342.868L253.378 317.966C234.689 331.477 217.035 343.411 208.405 348.934C201.255 355.64 189.075 356.626 179.508 344.002C164.024 323.735 142.179 238.671 139.615 224.223C139.24 224.081 138.891 223.882 138.579 223.631C135.029 218.7 122.602 191.825 123.785 186.598C124.969 181.371 130.788 170.078 137.543 168.549C136.754 166.133 135.867 163.618 134.585 160.117C131.725 152.326 128.322 144.436 133.451 145.323C138.579 146.211 150.315 174.911 152.337 179.842C152.633 177.524 152.929 175.65 152.929 175.65C154.507 171.015 162.791 168.549 161.559 175.65C160.128 185.513 163.58 190.444 163.432 198.581C163.432 199.024 163.432 199.517 163.432 200.208C163.452 200.503 163.452 200.8 163.432 201.095C163.459 201.308 163.459 201.524 163.432 201.737C163.432 201.737 163.432 201.983 163.432 202.082C162.232 208.142 160.103 213.98 157.12 219.39C162.495 236.945 187.152 282.855 201.501 308.152C210.279 300.854 221.226 292.175 232.568 283.496L231.582 281.869C231.582 281.869 290.066 227.182 320.344 223.039C320.788 220.919 321.084 218.601 321.38 216.185C321.675 213.769 321.873 209.676 321.971 206.323C299.732 206.076 297.66 189.704 299.879 168.895L296.378 168.007L301.556 154.594V153.608C300.988 152.946 300.658 152.112 300.619 151.241C300.619 149.613 301.063 148.233 301.951 148.183C302.077 148.134 302.218 148.134 302.345 148.183C302.345 147 302.74 145.816 302.888 144.633C303.282 142.019 303.775 139.702 304.268 137.285C302.949 137.026 301.593 137.026 300.274 137.285L299.879 134.869C301.51 134.578 303.18 134.578 304.811 134.869C306.447 128.258 309.092 121.937 312.651 116.13C305.55 115.637 302.197 113.32 307.128 107.599C314.772 98.7232 350.967 94.2851 369.213 98.0328C375.623 99.3642 379.815 101.682 379.864 105.134C379.864 105.528 379.864 105.775 379.864 106.12C381.73 105.33 383.336 104.032 384.499 102.372L386.57 103.753C385.38 105.437 383.831 106.835 382.034 107.846L381.294 108.24C400.822 120.963 373.207 189.113 373.108 189.113C372.566 200.8 372.221 212.339 372.27 220.475C389.825 222.497 400.92 227.625 408.268 235.663C427.993 251.493 458.271 316.437 458.271 316.437L445.893 319.691C454.72 347.997 462.215 376.401 464.385 385.918C464.45 387.34 464.334 388.765 464.04 390.159Z" fill="#D1CDD3"/>
<rect opacity="0.3" x="372.615" y="280.833" width="330.047" height="257.657" rx="33.6" transform="rotate(180 372.615 280.833)" fill="#4D8DFF"/>
<path opacity="0.3" fill-rule="evenodd" clip-rule="evenodd" d="M40.3489 304.158H350.622C361.11 304.158 371.167 299.982 378.569 292.551C385.972 285.121 390.111 275.049 390.072 264.56V39.4498C390.072 17.6623 372.409 0 350.622 0H40.3489C18.5613 0 0.899048 17.6623 0.899048 39.4498V264.708C0.899048 286.496 18.5613 304.158 40.3489 304.158ZM1.98389 39.4499C2.01106 18.2728 19.1717 1.11213 40.3489 1.08497H350.622C371.799 1.11213 388.96 18.2728 388.987 39.4499V264.56C388.96 285.738 371.799 302.898 350.622 302.925H40.3489C19.1717 302.898 2.01106 285.738 1.98389 264.56V39.4499Z" fill="#4D8DFF"/>
<g opacity="0.3">
<rect x="125.067" y="99.5122" width="55.1311" height="43.0496" rx="5.6" transform="rotate(180 125.067 99.5122)" fill="#4D8DFF"/>
<rect x="198.444" y="99.5122" width="55.1311" height="43.0496" rx="5.6" transform="rotate(180 198.444 99.5122)" fill="#4D8DFF"/>
<rect x="271.87" y="99.5122" width="55.1311" height="43.0496" rx="5.6" transform="rotate(180 271.87 99.5122)" fill="#4D8DFF"/>
<rect x="345.296" y="99.5122" width="55.1311" height="43.0496" rx="5.6" transform="rotate(180 345.296 99.5122)" fill="#4D8DFF"/>
</g>
<g opacity="0.3">
<rect x="125.067" y="173.53" width="55.1311" height="43.0496" rx="5.6" transform="rotate(180 125.067 173.53)" fill="#4D8DFF"/>
<rect x="198.444" y="173.53" width="55.1311" height="43.0496" rx="5.6" transform="rotate(180 198.444 173.53)" fill="#4D8DFF"/>
<rect x="271.87" y="173.53" width="55.1311" height="43.0496" rx="5.6" transform="rotate(180 271.87 173.53)" fill="#4D8DFF"/>
<rect x="345.296" y="173.53" width="55.1311" height="43.0496" rx="5.6" transform="rotate(180 345.296 173.53)" fill="#4D8DFF"/>
</g>
<g opacity="0.3">
<rect x="125.067" y="247.498" width="55.1311" height="43.0496" rx="5.6" transform="rotate(180 125.067 247.498)" fill="#4D8DFF"/>
<rect x="198.444" y="247.498" width="55.1311" height="43.0496" rx="5.6" transform="rotate(180 198.444 247.498)" fill="#4D8DFF"/>
<rect x="271.87" y="247.498" width="55.1311" height="43.0496" rx="5.6" transform="rotate(180 271.87 247.498)" fill="#4D8DFF"/>
<rect x="345.296" y="247.498" width="55.1311" height="43.0496" rx="5.6" transform="rotate(180 345.296 247.498)" fill="#4D8DFF"/>
</g>
<rect x="278.872" y="92.5098" width="55.1311" height="43.0496" rx="5.6" transform="rotate(180 278.872 92.5098)" fill="#4D8DFF"/>
<rect x="278.872" y="240.496" width="55.1311" height="43.0496" rx="5.6" transform="rotate(180 278.872 240.496)" fill="#FF4E4A"/>
<rect x="132.02" y="166.528" width="55.1311" height="43.0496" rx="5.6" transform="rotate(180 132.02 166.528)" fill="#FFC84D"/>
<path d="M411.128 146.556C409.451 157.306 406.197 215.593 407.528 228.908C408.86 242.222 343.422 246.266 352.15 231.423C360.879 216.58 354.665 167.317 354.665 167.317L411.128 146.556Z" fill="#FFAD69"/>
<path d="M406.591 148.233L354.665 167.218C356.61 183.465 357.072 199.855 356.046 216.185C377.448 207.358 372.714 189.408 372.714 179.743C372.714 170.966 406.64 149.909 406.591 148.233Z" fill="#D88344"/>
<path d="M338.146 150.452L330.059 167.711L339.921 171.705L338.146 150.452Z" fill="#D88344"/>
<path d="M337.998 144.732C333.067 177.919 324.979 211.007 365.218 205.534C405.457 200.06 411.67 148.578 411.572 138.814C410.931 86.9376 347.466 79.5408 337.998 144.732Z" fill="#FFAD69"/>
<path d="M416.454 108.438C418.532 107.364 420.337 105.829 421.73 103.95L419.659 102.57C418.4 104.258 416.691 105.557 414.728 106.317C414.754 105.973 414.754 105.626 414.728 105.282C414.728 91.8688 352.298 95.7151 341.992 107.698C335.877 114.799 342.387 116.673 352.939 116.328C352.156 116.931 351.572 117.755 351.263 118.695C344.31 152.769 377.152 186.302 380.85 189.162H407.676C407.676 189.162 435.784 120.963 416.454 108.438Z" fill="#232323"/>
<path d="M499.298 385.967C495.748 370.138 477.256 301.643 462.561 268.801L425.034 276.79C425.034 276.79 449.246 357.761 462.117 387.989C459.109 404.262 443.921 479.956 434.551 501.111C430.409 510.974 446.09 514.771 449.887 510.037C453.684 505.303 496.783 418.711 499.2 391.687C499.2 391.096 499.2 390.603 499.2 390.06C499.446 388.709 499.479 387.328 499.298 385.967Z" fill="#FFAD69"/>
<path d="M442.934 235.417C462.659 250.852 493.184 316.486 493.184 316.486L428.585 333.252C428.585 333.252 391.009 194.784 442.934 235.417Z" fill="#E5AA33"/>
<path d="M473.903 493.32C463.373 502.605 451.979 510.861 439.877 517.976C397.222 543.766 344.359 559.398 289.327 572.22C289.277 571.579 289.277 570.936 289.327 570.296C291.102 539.772 294.258 504.908 299.189 482.767L440.272 485.578L473.607 486.268C473.607 487.945 473.903 490.312 473.903 493.32Z" fill="#232323"/>
<path d="M395.693 219.686C434.403 220.969 447.52 234.036 454.177 256.671C461.772 282.313 475.135 437.4 475.135 489.178C475.135 489.178 359.202 497.413 294.997 486.86C315.117 418.859 317.287 296.614 317.73 260.024C318.026 232.853 346.578 218.059 395.693 219.686Z" fill="#FFC84D"/>
<path fill-rule="evenodd" clip-rule="evenodd" d="M400.476 246.315C401.17 247.252 402.269 247.802 403.435 247.794L404.027 247.597C405.35 247.43 406.48 246.563 406.986 245.329L412.607 231.324C412.982 230.199 412.802 228.962 412.122 227.99C411.442 227.018 410.341 226.426 409.155 226.393H393.03C391.629 226.393 390.349 227.184 389.722 228.437C389.096 229.69 389.231 231.19 390.071 232.31L400.476 246.315ZM391.797 229.549C392.009 229.117 392.451 228.848 392.932 228.858H409.007C409.422 228.854 409.811 229.057 410.043 229.401C410.265 229.764 410.265 230.221 410.043 230.584L404.421 244.54C404.272 244.971 403.888 245.278 403.435 245.329C402.996 245.38 402.563 245.191 402.301 244.836L391.797 230.831C391.546 230.441 391.546 229.939 391.797 229.549Z" fill="white"/>
<path d="M317.583 269.048C317.287 286.948 316.596 315.5 314.673 347.405C331.094 327.68 347.219 304.355 348.156 286.849C349.488 262.785 335.828 261.306 317.583 269.048Z" fill="#E5AA33"/>
<path d="M339.428 277.382L319.703 244.589C319.703 244.589 265.459 283.694 236.316 307.906C221.917 282.559 197.31 236.65 191.935 219.144C194.908 213.752 197.021 207.928 198.197 201.885C198.227 201.771 198.227 201.653 198.197 201.539C198.197 201.539 198.197 201.096 198.197 200.898C198.219 200.603 198.219 200.306 198.197 200.011C198.197 199.32 198.197 198.778 198.197 198.334C198.197 190.395 194.894 185.513 196.324 175.453C197.31 168.402 189.272 170.818 187.694 175.453L187.053 179.595C185.031 174.664 172.851 145.718 168.216 145.077C163.58 144.436 166.49 152.227 169.35 159.871C170.583 163.273 171.52 165.936 172.309 168.303C165.503 169.881 159.487 181.519 158.55 186.401C157.613 191.282 169.942 218.503 173.344 223.434C173.608 223.764 173.924 224.047 174.281 224.272C176.796 238.77 198.937 323.785 214.125 344.101C223.692 356.676 235.921 355.69 243.072 349.032C260.627 337.839 314.574 300.756 339.428 277.382Z" fill="#FFAD69"/>
<path d="M372.714 244.589C370.741 280.784 303.676 342.868 303.676 342.868L266.298 281.721C266.298 281.721 376.363 178.757 372.714 244.589Z" fill="#FFC84D"/>
<path d="M352.003 154.988C350.523 163.667 348.353 172.297 356.49 171.656C364.626 171.015 366.698 157.503 366.846 154.939C367.536 141.132 354.912 137.828 352.003 154.988Z" fill="#FFAD69"/>
</svg>
